<svg xmlns="http://www.w3.org/2000/svg" viewBox="0 0 298.71 102.84" width="160" height="55" role="img" aria-label="Klee group - retour à l'accueil"><defs><style>.d{fill:#fff;}.e{fill:#fcea1e;}.f{fill:#eb7f4b;}.g{fill:none;}.h{fill:#fecd1e;}.i{fill:#020101;}.j{fill:#ee8250;}.k{fill:#1b171b;}</style></defs><g id="a"></g><g id="b"><g id="c"><path class="k" d="M162.7,44.23v-13.44h1.29l12.55,15.75c2.39,3.01,3.68,5.08,5.95,5.08h33.58l1.32-8.01h-1.1c-2.01,4.77-1.76,6.59-8.12,6.59-3.9,0-5.61-.31-5.61-3.42V26.03c0-4.14-.17-3.91,3.78-4.41v-1.16h-11.82v1.16c3.95,.49,3.78,.27,3.78,4.41v20.02c0,4.06,.15,3.92-3.58,4.38-.13,0-4.93,.03-5.51,.03-.75,0-1.12-.12-1.3-.21-5.6-3.83-13.79-14.6-19.62-20.9l12.03-12.19c2.39-2.43,4.61-4.74,6.31-5.44v-1.55h-10.8v1.55c2.1-.07,5.72,.41,3.15,3.07l-11.91,12.14c-1.45,1.48-2.57,2.18-4.37,2.36v-11.71c0-5.51-.23-5.21,5.02-5.86v-1.55h-15.7v1.55c5.25,.65,5.02,.35,5.02,5.86v26.64c0,5.5,.23,5.2-5.02,5.86l-3.06,.24c-.61-.03-1.25-.04-1.93-.04-15.76,0-23.34,12.07-23.34,21.19,0,15.86,10.79,21.66,22.76,21.66,5.31,0,10.21-1.25,13.94-2.72v-10.3c0-5.51-.23-5.21,5.02-5.87v-1.54h-16.86v1.54c6.42,.65,6.19,.36,6.19,5.87v3.61c0,4.62-.64,7.33-7.94,7.33-11.85,0-16.52-10.7-16.46-20.05,.06-10.13,4.02-18.64,16.23-18.64,9.28,0,12.26,5.15,12.43,9.88h1.52v-7.64c0-.94-.64-1.78-2.27-2.31-.67-.22-1.33-.45-2.02-.67h11.51v-1.53c-5.25-.66-5.02-.36-5.02-5.86Z"></path><path class="k" d="M247.97,43.61h-1.14c-2.02,4.77-1.71,6.59-8.07,6.59-3.95,0-5.66-.31-5.66-4.09v-10.05h3.69c2.94,0,3.95,1.55,4.04,4.18h1.14v-9.49h-1.14c-.09,2.77-1.28,3.88-4.04,3.88h-3.69v-12.72h5.97c3.16,0,4.03,2.45,4.47,5.74h1.14v-7.17h-19.61v1.16c3.95,.49,3.77,.27,3.77,4.41v20.02c0,4.13,.17,3.91-3.77,4.41v1.15h21.59l1.32-8.01Z"></path><path class="k" d="M281.65,43.61h-1.15c-2.01,4.77-1.71,6.59-8.06,6.59-3.96,0-5.66-.31-5.66-4.09v-10.05h3.68c2.94,0,3.95,1.55,4.04,4.18h1.14v-9.49h-1.14c-.09,2.77-1.27,3.88-4.04,3.88h-3.68v-12.72h5.97c3.16,0,4.04,2.45,4.48,5.74h1.14v-7.17h-19.61v1.16c3.94,.49,3.77,.27,3.77,4.41v20.02c0,4.13,.17,3.91-3.77,4.41v1.15h21.59l1.32-8.01Z"></path><path class="k" d="M190.47,84.54l-4.3-6.64c3.37-1.33,6.14-4.49,6.14-9.07,0-5.21-4.43-7.57-8.86-7.57h-12.77v1.16c3.95,.49,3.77,.27,3.77,4.4v20.02c0,4.14,.18,3.91-3.77,4.41v1.16h11.8v-1.16c-3.95-.49-3.78-.27-3.78-4.41v-8.23h4.12c5.32,8.94,6.71,13.8,9.31,13.8h4.52v-.59c-1.53-.93-3.99-4.05-6.19-7.29Zm-8.12-7.34h-3.64v-14.5h3.38c3.21,0,5.84,1.69,5.84,6.53s-1.76,7.97-5.58,7.97Z"></path><path class="k" d="M216.23,60.73c-9.13,0-16.5,7.08-16.5,16.69,0,8.63,6.54,15.53,14.91,15.53,9.7,0,16.63-7.65,16.63-17.04,0-6.85-5.53-15.18-15.05-15.18Zm-.4,30.66c-5.67,0-11.1-5.52-11.1-16.29,0-6.05,3.07-12.82,10.53-12.82,5.35,0,11.01,4.32,11.01,14.96,0,5.96-2.28,14.15-10.44,14.15Z"></path><path class="k" d="M258.88,62.42c2.06,.22,3.55,.85,3.77,2.45,.08,.71,.26,1.47,.26,2.4v12.36c0,7.12-3.16,11.22-9.17,11.22-6.53,0-8.21-4.76-8.21-10.99v-13.04c0-4.13-.17-3.92,3.77-4.4v-1.16h-11.8v1.16c3.95,.49,3.77,.27,3.77,4.4v13.26c0,8.05,2.9,12.86,12.24,12.86,5.66,0,11.67-3.56,11.67-13.12v-12.55c0-.93,.17-1.69,.26-2.4,.22-1.6,1.67-2.22,3.78-2.45v-1.16h-10.35v1.16Z"></path><path class="k" d="M286.29,78.13v.89c6.72,.4,12.42-3.07,12.42-9.48,0-5.34-3.6-8.28-10.88-8.28h-11.5v1.16c3.95,.49,3.77,.27,3.77,4.4v20.02c0,4.14,.18,3.91-3.77,4.41v1.16h11.8v-1.16c-3.95-.49-3.77-.27-3.77-4.41v-24.16h2.68c4.91,0,7.28,2.31,7.28,7.29s-2.55,8.23-8.03,8.14Z"></path><g><path class="k" d="M46.56,5.91h.55c.12,.1,.24,.2,.36,.3,.18,.3,.74,.37,1.09,.37,.13,0,.42,.07,.42,.24h.24c.67-.87,3.04,.65,3.04,1.39,.12,.15,.79,1.15,.79,1.15l.18,.18c.06-.02,.12-.04,.19-.06,.35,.33,1.39,1.23,1.39,1.69,.76,.15,2.92,2.78,2.92,2.78,.07,.24,.54,.49,.54,.72,.1,.25,.2,.49,.3,.73,.08,.37,.3,.66,.35,.98,.02,.16,.04,.33,.05,.49,.09,.12,.18,.23,.27,.34-.02,.02-.04,.04-.06,.06,.13,.49,.14,1.4,0,1.87-.08,.2-.17,.4-.26,.61,0,.42,.01,.84,.02,1.26-.35,.19-.29,.59-.49,.9-.2,.31-.63,.47-.78,.76-.04,.25-.09,.49-.13,.74-.16,.33-.33,.65-.49,.98-.18,.14-.36,.28-.54,.41-.22,.22-.14,.47-.31,.68-.17,.15-.34,.29-.5,.44-.46,.66-.39,1.6-.95,2.27-.04,.03-.08,.04-.11,.06-.89,.94-1.02,1.56-1.38,2.08-1.77,2.51-3.7,1.45-3.7,1.45,.4-.68,3.08-3.26,2.63-3.94-.35-.52-2.14-.9-2.75-1.21-.22-.2-.44-.4-.66-.6-2.44-2.14-3.61-5.07-4.19-8.14-.13-.68-.47-1.41-.55-2.12,0-1.42-.01-2.84-.02-4.27,.02-.76,.43-1.37,.58-2.05,.02-.07,.04-.06-.04-.06,.23-.31,.45-.63,.68-.95,.29-.32,.59-.64,.88-.96,.24-.47,.1-1.12,.44-1.53Z"></path><path class="g" d="M51.35,30.56c.39,.06,.06,.25,.06,.43h-.12v-.12c-.03-.07-.12-.19,0-.19,.02-.04,.04-.08,.06-.12Z"></path><path class="g" d="M51.05,30.99c.52,.59-.55,.56-.55,.9-.09,0-.12,.03-.12-.06-.1-.06-.56-.48-.43-.48,.2-.15,.51-.19,.79-.19,.1-.06,.21-.12,.31-.17Z"></path><path class="g" d="M60.27,50.8c.1,0,.31-.04,.31,.06-.1-.02-.21-.04-.31-.06Z"></path><path class="k" d="M99.53,51.47c.32,0,.67,0,.93,.12,.01,0,.02,.01,.03,.02,0,.01,.01,.01,.02,.02,.07,.14,.14,.27,.2,.41,.22,.22,.43,.42,.65,.63v.06h-.49v.06h.06c.07,.12,.19,.66-.06,.66,.04,.09,.08,.17,.12,.24-.4,.12-.81,.24-1.21,.36-.15,.59-1.1,.59-1.1-.06,.47-.5,0-.86,.14-1.43,.24-.36,.48-.73,.72-1.11Z"></path><path class="g" d="M70.4,54.06c.02,.1,.04,.21,.06,.3h-.06v-.3Z"></path><path class="g" d="M72.4,57.68c.02,.14,.05,.28,.07,.42h-.07v-.42Z"></path><path class="g" d="M54.32,60.51c.02,.07,.12,.24,0,.24v-.24Z"></path><path class="g" d="M73.37,61.17c0,.08-.04,.24,.06,.24-.02-.08-.04-.16-.06-.24Z"></path><path class="g" d="M73.49,64.24c.03,.07,.12,.25,0,.25v-.25Z"></path><path class="k" d="M98.62,67.2c.38,.29,.35,.69,.97,.62,.02,0,.04,0,.06-.01v.06c.26,.24,.28,.6,.72,.6,.26,.29,.54,.29,.88,.43,.14,.06,.85,.85,.93,1.02,.04,.07,.09,.24,.19,.24-.02,.03-.04,.04-.06,.06-.27,.27-.54,.54-.81,.82-.73,.73-.22,.74,.21,1.21,.3,.35,.59,.68,.93,1.01,.09,.09,.19,.19,.28,.27-1.18-.07-2.83,2.29-1.45,2.29,.08-.04,.18-.02,.18-.13h.12v.06c-.7,.36-1.34,.84-2.04,1.21-.24,.06-.49,.13-.74,.2-.37,.19-.74,.37-1.11,.55-.58,.08-.86-.31-1.29-.52-.35-.11-.69-.22-1.04-.33-.3-.08-.57,0-.84-.14-.06-.08-.12-.17-.17-.25-.26-.87-.73-1.09-1.45-1.54-.16-.09-.3-.18-.45-.27-.12-.15-.13-.38-.13-.59-.01-.79,1.13-1.76,1.51-2.44,.04-.08,.03-.33,.12-.33,.25-.27,.5-.54,.75-.81,.41-.48,.51-1.12,1.31-1.12,.65-.47,.81-1.04,1.36-1.54,.32-.29,.72-.39,1.07-.64Z"></path><path class="g" d="M73.25,67.74c.01,.09,.04,.24-.06,.24v-.12s.04-.08,.06-.13Z"></path><path class="g" d="M70.83,70.03c.02,.08,.11,.24,0,.24v-.24Z"></path><path class="g" d="M69.31,72.08s.04,.08,.06,.12c-.02-.03-.04-.04-.06-.06v-.06Z"></path><path class="g" d="M68.95,72.2c.09,0,.3-.05,.3,.06-.1-.02-.2-.04-.3-.06Z"></path><path class="j" d="M44.25,0h1.4c0,.79,.25,1.35,.24,2.17,0,.71-.36,1.41-.16,2.15,.06,.24,.34,.25,.5,.4,.22,.21,.75,.87,.75,1.18h-.06v.06c-.87,0-.49,1.03-.83,1.53-.33,.34-.64,.77-.97,1.11-.37,.43-.53,1.09-.73,1.61-.38,.97-.34,2-.34,3.16,.01,.8-.02,1.6-.01,2.4,.18,.65,.36,1.3,.52,1.95,.34,1.62,.66,3.08,1.41,4.49,.24,.45,.59,.84,.84,1.3,.57,1.04,1.96,2.3,2.56,2.95,.27,.29,.98,.36,1.34,.52,.65,.29,1.29,.36,1.66,1.06,.22,.41-.28,2.1-.57,2.43-.13,.08-.26,.15-.38,.22-.08,.04-.14,.21-.2,.21-.19,.17-1.43,.6-1.7,.6-.59-.47-2.3,.26-2.3-.87-.93-.15-1.66-.78-2.46-1.19-.27-.14-.57-.09-.88-.15-.27-.13-.54-.25-.81-.38-1.16-.67-2.1-1.61-3.06-2.6-.31-.31-.61-.63-.92-.95-.55-.86-1.02-1.75-1.51-2.63-.28-.48-.69-.9-.86-1.44-.17-.52-.18-2.61,0-3.14,.18-.4,.37-.79,.57-1.2,.05-.36-.33-.61-.3-1.06,0-1.39,0-2.77,0-4.16,.09-.81,.6-1.5,.91-2.18,.31-.7,.43-1.48,.89-2.09,.21-.15,.41-.29,.61-.44,.2-.28,.4-.56,.59-.84-.18-.31-.5-.3-.73-.53-.35-.37-.19-1.07-.51-1.43-.19-.08-.37-.16-.56-.24-.06-.06-.12-.11-.17-.17-.19-.55-.08-.82-.08-1.23,.59-.75,1.92-.35,1.92,.11,.02-.02,.04-.04,.06-.06,.02,0,.42,.01,.44,.01,.73-.12,.04,1.38,.04,1.37h.06c.38-.25,.72,.08,1.09,.08,.19-.08,.37-.15,.56-.23,.06-.02,.11-.08,.11,.02,.21,.14,.42,.28,.63,.42,.37,.15,.94,.15,1.49,.72,.31-.13,.18-.11,.52-.11,0-.02,.25-.06,.25-.08,.26-.41,.35-1.6-.04-1.96-.24-.22-.67-.16-.78-.51-.21-.68-.07-1.64-.07-2.39Z"></path><path class="j" d="M92.73,0h8.09s-.12,.49-.2,.49c-.16,.38-.32,.75-.48,1.12-.38,.88-.76,1.77-1.1,2.64-.08,.37-.16,.74-.25,1.11-.18,.59-.37,1.18-.56,1.77-.05,.35-.1,.7-.15,1.05-.22,.7-.91,1.27-.91,2.07-.06-.02-.12-.1-.12,0-.29,.15-.55,.65-.55,.97-.24,.24-.48,.48-.73,.72,.02,.1,.04,.2,.06,.3-.4,.25-1.33,2.2-1.33,2.71-.36,.72-.73,1.44-1.09,2.17-.09,.2-.82,1.68-.97,1.68,.02,.12,.04,.24,.06,.36-.08,.07-.17,.15-.25,.22-.15,.48-.29,.98-.43,1.46-.22,.68-.9,1.35-.9,2.11-.04,.08-.08,.17-.12,.24-.19,.7-.66,1.29-.98,1.91-.19,.38-.22,.72-.36,1.13-.14,.29-.29,.58-.43,.86-.14,.26-.27,.53-.42,.79-.38,.79-.77,1.58-1.15,2.37-.19,.34-.54,.56-.54,1-.4,.25-2.67,4.43-2.67,4.94h-.07s-.08,.04-.12,.06c-.14,.29-1.28,2.23-1.52,2.23,.02,.1,.04,.2,.06,.3-.64,.62-1.15,1.18-1.8,1.8,.02,.03-.4,.72-.37,.76-1.09,1.24-5,5.04-5,5.03,.38-.09-1.64,1.66-1.64,1.45-.61,.15-2.6,.2-3.19,.02-.3-.2-.49-.26-.79-.45-.35-.04-.72-.09-1.07-.13-.34-.17-.42-.42-.85-.42-.05-.31-1.03-.61-1.5-.71-.1-.12-.19-.24-.29-.36-.12-.07-.24-.14-.37-.21-.31-.05-.62-.1-.93-.16-.36-.2-.96-.24-1.32-.44-.38-.15-1.3-.75-.69-1.42,.21-.23,.01-.13,.32-.13,.04-.02,.36-.08,.4-.1,.17-.13,.19-.21,.42-.21,.17-.54,.04-.58,.04-1.07,.17-.36,.14-.59,.3-.96,0-.01-.24-.37-.24-.39,.39-.05,1.17-.06,1.52-.06,.27,.1,.53,.2,.79,.3,.93,.1,1.87,.08,2.85,.08,.74-.52,2.22-.24,3.19-.46,.6-.14,.88-.38,1.55-.38,.1,0,.13-.17,.23-.17,.18-.21,.26-.25,.45-.47-.17-.9,.99-.99,1.62-1.14,.39-.09,.39-.42,.64-.65,.25-.14,.5-.27,.76-.42,.12-.14,.23-.28,.35-.42,.27-.12,.55-.24,.82-.36,.32-.18,.41-.55,.68-.8,.17-.13,.34-.26,.51-.39,.06-.19,.13-.39,.19-.59,.2-.35,.4-.71,.6-1.07,.25-.19,.5-.37,.74-.56,.19-.33,.1-.82,.3-1.15,.31-.54,.99-.86,1.29-1.5,.21-.75,.42-1.51,.63-2.26,.24-.41,.47-.82,.71-1.23,.24-.69,.48-1.38,.72-2.08,.06-.13,.29-.55,.47-.55-.47-1.36,.73-3.67,.73-5.3,.43-.58,.42-1.51,.68-2.17,.21-.54,.6-.97,.79-1.53,.12-.53,.25-1.07,.37-1.61,.33-1.19,.77-2.45,1.09-3.64,.34-1.26,.51-2.55,.9-3.78,.22-.46,.43-.93,.65-1.39,.14-.43,.28-.86,.42-1.29,.62-1.31,1.48-3.71,1.48-3.71Z"></path><path class="f" d="M34.24,7.9c.24,.03,.48,.07,.72,.11,.12,.22,.23,.43,.34,.64,.23,.12,.45,.24,.68,.37,.3,.47-.08,.89-.53,.82-.17-.03-1.15-.13-1.15-.25-.15-.46-.24-1.06-.24-1.57,.06-.04,.12-.08,.18-.12Z"></path><path class="f" d="M36.54,10.19c.04,.08,.08,.17,.12,.24h-.18v-.19s.04-.03,.06-.06Z"></path><path class="j" d="M25.62,58.7c.47,.15,.7,.42,1.25,.42,.18-.05,.5,.17,.65,.26,.49,.27,.87,.65,1.37,.89,.39,.11,.99,.23,1.37,.34,.28,.21,.51,.38,.79,.58,.28,.14,.69,.12,1.03,.19,.14,.03,.69-.03,.69,.03,.02,0,.39,.05,.41,.05,.7-.17,.86,.77,.86,1.3,.46,.68,.5,.68,.77,1.48,.08,.21,.18,1.21,.27,1.41,.09,.34,.18,.68,.26,1.02,.29,.73,.81,1.35,1.19,2.04,.38,.77,.75,1.53,1.12,2.3,.16,.33,.64,.57,.64,.98,.31,.57,.49,.54,.79,1.1,.34,.74,.98,2.21,1.36,2.94,.2,.33,.19,.59,.39,.93,.14,.51,.48,1.02,.62,1.53,.42,.89,.98,1.96,.98,3.04,.28,.76,.2,1.4,.26,2.28,.09,.38,.09,.88,.18,1.27,.1,.61,.1,1.25,0,1.83-.02,.12-.34,.58-.26,.58-.01,3.22-.03,6.46-.04,9.69,.11,.38,.21,.77,.31,1.16,.02,.58,.04,1.16,.06,1.74,.1,.39,.19,.78,.29,1.16,.02,.54,.03,1.08,.05,1.62h-9.47v-.12h.06c.47-.81,.16-2.08,.31-3.01,.18-.53,.36-1.05,.53-1.59,.13-.5,.07-1.04,.19-1.54,.19-.53,.38-1.06,.57-1.59,.21-.94,.21-1.78,.33-2.76,.12-.56,.26-1.13,.38-1.69-.18-.1-.36-.2-.55-.3v-.18c.06-.08,.12-.17,.19-.24-.31-.07-.47,.12-.73,.12-.1-.59-.66-.74-.66-1.02,.59-.86-.79-2.23-1.14-2.93-.17-.34-.31-.86-.61-1.12-.12-.03-.25-.05-.38-.08-.08,.01-.13-.01-.13,.08-.06,.09-.1,.3-.24,.3-.29-.52-.29-1-.51-1.46-.12-.24-.48-.17-.57-.43-.08-.36-.16-.74-.24-1.11-.21-.59-.56-1.14-.85-1.68-.37-.87-.74-1.74-1.11-2.61-.24-.42-.47-.85-.7-1.28-.08-.34-.16-.66-.24-1-.17-.36-.34-.73-.51-1.09-.08-.34-.16-.67-.24-1.01-.09-.19-.19-.38-.28-.58-.04-.21-.08-.43-.12-.64-.17-.31-.34-.61-.51-.92,.42-.75-1.48-3.4-1.83-4.18-.05-.31-.1-.61-.15-.92-.19-.49-.62-.95-.8-1.44,.03-.06,.14-.25,.18-.31-.06-.15,.06-.2,0-.35-.15-.37-.27-.82-.21-1.26,0-.06,0-.24,0-.31,.02-.1,0-.24,.03-.33,.05-.08,.13-.15,.18-.23,.25-.22,.83-.28,.74-.61-.23-.93,.47-2.17,.58-2.17,.08-.08,.04-.23,.12-.31,.1,.04,.34-.09,.43-.04,.1-.15,.2-.04,.3-.19Z"></path><path class="e" d="M89.94,0h2.8c-.19,1.46-.84,2.5-1.47,3.73-.11,.35-.22,.7-.33,1.04-.23,.5-.46,1-.69,1.5-.51,1.22-.58,2.62-.94,3.91-.49,1.72-.96,3.44-1.44,5.19-.16,.6-.6,1.03-.81,1.58-.46,1.18-.53,2.39-.84,3.66-.17,.72-.34,1.44-.5,2.22-.08,.37-.26,.67-.22,1.1,0,.11,.03,.37,.15,.37,0,.08,.04,.12-.06,.12-.61,.72-.75,1.58-1.06,2.45-.18,.5-.59,.88-.76,1.37-.21,.75-.42,1.5-.63,2.25-.28,.64-.91,.96-1.28,1.53-.22,.34-.13,.78-.31,1.14-.02,.02-.03,.06-.06,.08-.25,.26-.57,.26-.77,.6-.18,.32-.35,.64-.53,.96-.06,.18-.11,.36-.17,.55-.21,.19-.43,.37-.64,.55-.24,.29-.36,.62-.73,.76-.32,.12-.89,.24-.89,.72-.25,.1-.51,.21-.77,.32-.13,.19-.27,.37-.41,.55-.2,.21-1.02,.45-1.3,.45-.69,.25-.42,1.06-1.05,1.41-.21,.06-.43,.12-.64,.18-.85,.31-1.4,.68-2.44,.67-.48,0-.7-.05-1.12-.02-.22,.06-.54,.12-.77,.18-.85,.13-2.14-.01-2.97-.16-.2-.04-1.07-.28-.61-.28,.52-.17,1.58-.22,2.12-.22,.29-.16,.58-.31,.86-.47,.41-.54,.82-1.07,1.23-1.62,.69-.68,1.37-1.36,2.06-2.04,.12-.18,.24-.37,.36-.55,.41-.45,.82-.91,1.23-1.36,.17-.32,.34-.64,.51-.96,.08-.06,.16-.12,.24-.17,.04-.47,.37-.74,.37-1.21,.27-.17,.24-.4,.39-.64,1-1.51,2.12-3.05,2.77-4.74,.03-.1,.07-.52,.17-.52,.16-.2,.24-.38,.24-.66,0,0,1.46-2.81,1.46-2.84,.19-.19,.24-.96,.54-.96-.08-.63,.37-.88,.37-1.45,.01-.01,.02-.02,.04-.03,.02-.02,.04-.03,.06-.05,.31-.36,.4-1.35,.59-1.81,.31-.77,1.32-1.92,1.32-2.75,.3-.19,.91-1.48,.91-1.86,.02-.01,1.5-2.82,1.59-3.03,.02-.19,.03-.38,.04-.58,.5-.36,.82-.95,1.1-1.48,.38-.73,.39-1.62,.72-2.38,.69-1.64,1.39-3.23,1.95-4.94,.13-.38,.28-.77,.42-1.15,.23-.03,.43-.05,.6-.19Z"></path><path class="e" d="M38.06,2.53c0,.41,0,.83,.01,1.24,.11,.35,.52,.18,.72,.43,.52,.63-.02,1.17,.89,1.65,.07,.04,.45,.36,.3,.36-.17,.29-.35,.57-.53,.85-.22,.19-.48,.24-.66,.49-.45,.63-.58,1.36-.87,2.06-.28,.67-.69,1.28-.88,1.99,0,1.51,0,3.04,0,4.55,.1,.26,.2,.52,.3,.79-.19,.42-.38,.84-.56,1.26-.22,.76-.14,2.1-.04,2.89,.08,.59,.53,1.17,.9,1.63,.28,.56,.57,1.12,.85,1.68,1.24,1.73,3.29,3.88,5.24,4.81,.28,.05,.56,.1,.85,.14,.91,.43,1.82,.86,2.72,1.29,.65,.35-.03,.65,1.25,.65,.73-.24,2.33,.57,1.32,1.3-.61,.43-3.02-.68-3.74-.83-.11-.03-.74-.02-.74-.12-.49-.6-.68-.38-1.17-.71-1.82-1.23-4.27-1.43-5.88-3.02-.41-.41-.59-.88-.94-1.3-.37-.43-.87-.73-1.19-1.21-.62-.93-1.5-2.22-1.87-3.25-.05-.31-.11-.62-.17-.93-.19-.49-.37-.98-.56-1.48-.03-.35-.07-.7-.11-1.06-.07-.17-.13-.34-.2-.5-.04-.27-.08-.54-.11-.81-.09-.23-.18-.46-.27-.7,0-1.24-.02-2.48-.03-3.73,0-1.34-.18-2.94,.21-4.09,.19-.28,.38-.56,.57-.83,.07-.24,.14-.49,.21-.73,.36-.45,.73-.91,1.1-1.37,.81-1.23,1.73-2.75,3.07-3.41Z"></path><path class="j" d="M34.24,7.9c-.13,.28-.1,1.62,.06,1.62v.13c.55,.1,1.09,.2,1.64,.29,.06-.32,.12-.64,.18-.96-.14-.06-.71-.18-.71-.36,0-.2-.27-.4-.27-.61-.27-.12-.58-.12-.91-.12Z"></path><path class="g" d="M.02,76.96c.06,.08,.12,.17,.18,.24-.06-.08-.12-.16-.18-.24Z"></path><path class="e" d="M32.42,84.68c.1,.02,.2,.04,.3,.06,.44,1.15,1.34,2.09,1.84,3.2,.17,.37,0,.72,.1,1.07,.07,.22,.37,.26,.37,.41,.01,.17,.04,.33,.06,.49h.19c.12-.13,.6-.36,.6-.09-.06,.08-.18,.31-.24,.39,.16,.08,.52,.06,.58,.25,.14,.49-.34,1.23-.4,1.68-.02,.44-.04,.87-.06,1.3-.15,.75-.13,1.84-.54,2.61-.54,.5-.33,1.3-.48,1.98-.15,.69-.56,1.44-.45,2.16,.12,.77-.21,2.61-.21,2.61,0,0-1.39,0-1.84,0v-1.25c-.09-.4-.28-.7-.33-1.16v-1.5c-.11-.38-.21-.77-.31-1.15,0-2.51-.01-5.02-.02-7.53,0-1.69-.13-3.43,.41-4.83,.07-.18-.02-.65,.24-.65,0-.02,.2-.05,.2-.07Z"></path><path class="e" d="M76.47,88.36c.59,.42-.2,1.34,.91,1.43,.09,0,.19-.04,.19,.07,.28,.76-.11,1.87,.2,2.62,.12,.28,.47,.23,.7,.38,.11,.23,.23,.47,.35,.7,.22,.09,.43,.19,.66,.28,.03,.03,.06,.07,.09,.1,.02,.05,.04,.11,.07,.16,.2,.77-.23,2.89,.19,3.42,.11,.13,.35,.19,.54,.19,2.21-.74,.97,2.59,1.36,3.63,.13,.36,.63,.21,.82,.5,.34,.51,.27,.87,1.09,.87v.12h-5.4c-.04-1.13-.42-1.98-.63-2.96-.14-.65-.25-1.2-.39-1.85-.1-.27-.19-.53-.28-.8-.03-.44-.19-.87-.21-1.31-.13-.63-.32-1.33-.45-1.95,0-1.48,0-2.96-.02-4.44,.04-.41,.21-.71,.23-1.15Z"></path><path class="g" d="M92.61,.13c.04,.08,.08,.16,.12,.25h-.12V.13Z"></path><path class="g" d="M92.49,.49c.04,.06,.11,.18,0,.18v-.18Z"></path><path class="g" d="M92.49,.85c.04,.06,.11,.18,0,.18v-.18Z"></path><path class="g" d="M92.43,1.15c.03,.13,.04,.48-.12,.48v-.06h.06v-.06s-.04-.05-.06-.06c.04-.1,.08-.2,.12-.3Z"></path><path class="g" d="M92.12,1.99c.04,.05,.18,.18,.06,.18v.06h-.12v-.18s.04-.04,.06-.06Z"></path><path class="g" d="M91.88,2.23h.18s-.04,.04-.06,.06v.12h-.12s-.04-.04-.06-.06c.02-.04,.04-.08,.06-.12Z"></path><path class="g" d="M91.52,2.83h.18c-.02,.1-.04,.21-.06,.31h-.12v-.31Z"></path><path class="g" d="M91.33,3.32h.19c-.08,.16-.17,.32-.24,.48h-.12c.06-.16,.12-.32,.18-.48Z"></path><path class="g" d="M37.88,3.86c.06,.06,.12,.12,.18,.18-.07-.06-.13-.12-.18-.18Z"></path><path class="g" d="M38.67,4.04c.06,.06,.12,.12,.18,.18-.06-.06-.12-.12-.18-.18Z"></path><path class="g" d="M91.03,4.22c.11,.28-.12,.51-.12,.79h-.12c0-.08-.04-.18,.06-.18,.07-.2,.12-.4,.19-.61Z"></path><path class="g" d="M90.73,5.07c.03,.18-.44,1.2-.55,1.2v.06h-.06v-.18c.2-.36,.41-.72,.61-1.08Z"></path><path class="g" d="M38.97,5.13c.04,.06,.1,.18,0,.18v-.18Z"></path><path class="g" d="M39.15,5.61c.1,.06,.36,.18,.36,.3h-.12c-.07-.04-.36-.24-.24-.24v-.06Z"></path><path class="g" d="M39.94,6.15c0,.11-.06,.36-.18,.36v.06h-.06v-.19c.08-.08,.17-.16,.24-.24Z"></path><path class="g" d="M90.06,6.39c.03,.06,.11,.19,0,.19v-.19Z"></path><path class="g" d="M89.94,6.81c.11,.22,0,.42,0,.67h-.12c.04-.22,.08-.45,.12-.67Z"></path><path class="g" d="M39.51,6.88s.08,.04,.12,.06c-.02,.04-.04,.08-.06,.12-.02-.06-.04-.12-.06-.18Z"></path><path class="g" d="M39.1,7.06h.24v.12c-.14,.06-.28,.12-.43,.18v-.18c.06-.04,.13-.08,.19-.12Z"></path><path class="g" d="M38.61,7.54h.18s-.04,.04-.06,.06c-.04,.04-.08,.08-.12,.12v-.06s.04-.04,.06-.06h-.06v-.06Z"></path><path class="g" d="M89.76,7.78c.03,.06,.11,.18,0,.18v-.18Z"></path><path class="g" d="M89.7,8.02v.36h-.06v-.06h-.06c.04-.1,.08-.2,.12-.3Z"></path><path class="g" d="M38.3,8.14c.04,.06,.08,.12,.13,.18-.04,.02-.08,.04-.13,.06v.06h-.06c.02-.1,.04-.2,.06-.3Z"></path><path class="g" d="M89.52,8.5c.15,.31-.06,.67-.06,.97h-.12c0-.08-.04-.18,.06-.18,.04-.26,.08-.52,.12-.79Z"></path><path class="g" d="M38.12,8.62c.03,.06,.11,.19,0,.19v-.19Z"></path><path class="g" d="M37.94,8.87h.18c-.04,.1-.06,.36-.18,.36v-.36Z"></path><path class="g" d="M37.88,9.47c.04,.05,.18,.24,.06,.24v.06h-.12c.02-.1,.04-.2,.06-.3Z"></path><path class="g" d="M37.57,10.01c.04,.06,.1,.18,0,.18v-.18Z"></path><path class="g" d="M89.21,10.01c.17,.4-.24,.7-.24,1.09h-.12c0-.08-.04-.19,.06-.19,.1-.3,.2-.6,.3-.9Z"></path><path class="g" d="M37.46,10.24s.08,.04,.12,.06c-.02,.04-.04,.08-.06,.12-.02-.06-.04-.12-.06-.19Z"></path><path class="g" d="M88.72,11.51c.07,.14,.08,.85-.12,.85,.04-.28,.08-.56,.12-.85Z"></path><path class="g" d="M36.97,12.12c.03,.06,.1,.19,0,.19v-.06s.06-.06,0-.06v-.06Z"></path><path class="g" d="M88.54,12.42c.03,.1,.04,.2,.06,.3h-.12c.02-.1,.04-.19,.06-.3Z"></path><path class="g" d="M88.49,12.85c0,.12,0,.36-.12,.36v-.06h.06v-.06c-.01-.08-.04-.18,.06-.18v-.06Z"></path><path class="h" d="M56.2,0c-3.33,0-6.67,0-10.01,.01-.2,0-.46,.01-.54,.2-.2,.49,.21,1.51,.16,2.2-.05,.62-.31,1.23-.17,1.92,.06,.34,.36,.28,.56,.49,.25,.34,.49,.68,.74,1.02,.58,.59,1.09,.84,1.89,.99,.3,.05,.79-.11,1.07-.13,.55-.05,1.37,.44,1.79,.76,.64,.5,.84,1.37,1.39,1.92,.25,.18,.5,.35,.75,.52,.38,.36,.62,.83,.97,1.14,1.25,1.08,2.52,2.21,3.36,3.57,.49,.77,.72,1.84,1.02,2.71,.27,.8-.08,1.61-.25,2.27-.01,.38-.03,.75-.05,1.12-.15,.38-.31,.75-.46,1.13-.19,.35-.62,.44-.77,.74-.03,.2-.06,.4-.09,.6-.17,.36-.34,.72-.51,1.09-.16,.24-.4,.31-.59,.5,0,0-.01,.02-.03,.03-.09,.22-.18,.43-.28,.64-.15,.14-.3,.27-.46,.4-.26,.51-.4,1.12-.6,1.68-.24,.52-.69,.71-1.02,1.16-.12,.24-.24,.47-.37,.71-.3,.26-.6,.52-.9,.78-.28,.17-1.02,.26-1.13,.57-.08,.06-.16,.12-.24,.18,0,.12-.24,.38-.31,.44-.43,.35-.57,.46-.57,.49-.06,.04-.1,.03-.15,.01-.05,.02-.17-.1-.17-.11-.11,0-.1,.05-.12,.14-.25,1.07-.64,.41-1.29,.54-.65,0-.85-.33-1.36-.48-.63-.15-1.25-.31-1.88-.45-.17-.18-.35-.34-.53-.51,0-.12-.27-.08-.36-.09-.78-.08-1.81-1.32-2.61-1.12-.28,0-1.7-.79-2.01-.97-.75-.4-1.39-.71-1.98-1.41-.2-.3-.4-.61-.6-.91-.37-.36-.74-.73-1.12-1.1-.65-.86-1.09-1.87-1.58-2.81-.1-.17-.21-.35-.32-.52-.06-.32-.12-.64-.18-.95-.18-.47-.36-.93-.54-1.4-.02-.33-.05-.66-.07-.98-.15-.65-.56-1.49-.63-2.14,0-1.2-.02-2.4-.03-3.61,0-1.12-.19-2.53,.08-3.55,.15-.56,.53-.82,.74-1.32,.05-.22,.1-.43,.15-.65,.37-.46,.74-.93,1.11-1.39,.68-.98,1.39-2.15,2.27-2.99,.3-.29,.68-.37,1-.7,.02-.02,.04-.04,.06-.06,.58,.02,.93,.26,1.43,.39,.17,0,.34,.02,.51,.03,.1,0,.06,.05,.06,.12-.06,.56-.12,1.13-.18,1.69h.12c0-.42,.37-.44,.69-.47,0,.11,.27,.12,.37,.14,.32,.08,.48-.13,.77-.11,.19,.1,.38,.2,.58,.32,.52,.19,.95,.15,1.34,.57,.14,.13,.33,.14,.51,.09,.21-.05,.43-.1,.63-.15,.31-.31,.23-1.77-.05-2.07-.22-.22-.68-.15-.8-.47-.25-.62-.08-1.65-.08-2.37H.02V24.83c1.54,0,2.49,1.65,3.82,2.11,0-.54-.16-.79-.26-1.21-.17-.71-.23-1.33-.41-2.03-.09-.19-.08-.75-.17-.94-.13-.74-.04-.9-.25-1.61-.09-.19-.08-.52-.17-.71-.03-.25-.6-2.78-1.01-3.94-.02-.19-.6-4.37-.93-5.66,.13-.81,.03-1.14,.92-1.29,.52,.11,.84,.19,.93,.41,.04,.28,.26,1.01,.3,1.28,.98,2.76,1.51,6.91,2.3,9.76,.31,1.09,.41,2.38,.79,3.56,.08,0,.15,1.09,.23,1.09,.41-.66,1.08-3.38,1.47-3.72,.23-.2,.53-.39,.86-.45,.37-.07,.81-.05,.91,.29,.33,1.11-.36,3.04-.62,4.14-.16,.51-.43,.76-.59,1.27-.15,.34-.77,1.86-.03,2.04,1.03,.25,2.14-.25,3.05-.49,.37-.04,.7-.27,1.07-.31,1.51-.5,3.02-.88,4.53-1.37,.39-.04,.77-.22,1.17-.26,.84-.27,1.67-.45,2.56-.64,.56-.12,.99-.41,1.69-.27,.27,.06,.9,.67,.97,.94,.1,.32,.12,.91-.17,1.1-.47,.32-.94,.29-1.5,.44-.58,.17-1.25,.44-1.85,.56-.36,.03-.72,.06-1.07,.09-.21,.1-.67,.13-.88,.22-1.51,.31-2.33,.76-3.76,1.11-.79,.2-1.84,.45-2.59,.73,.02,.1,.04,.2,.06,.3,.79,0,2.8,1.26,2.48,2.08-.1,.24-.22,.49-.5,.49-.33-.03-1.09-.33-1.43-.36-.69-.23-3.61-2.01-3.82-1.85-.21,.15-.13,.9-.06,1.12,.33,1.24,.9,2.53,1.21,3.77,.19,.76,.25,1.45,.48,2.2,.31,1.02,.92,2.02,1.19,3.06,.03,.24,.05,.49,.07,.74,.09,.23,.18,.45,.28,.68,.04,.25,.08,.51,.12,.77,.19,.33,.39,.65,.58,.98v.12h.19v-.06c.1,0,.67-.65,.91-1,.28-.38-.05-1.09,.17-1.5,.14-.28,.52-.22,.74-.4,.1-.22,.2-.45,.31-.66,.17-.24,.63,.1,.83-.08,.47-.39-.19-.88,.67-1.16,.27-.08,.33-.29,.37-.56,.02-.1,.32-.21,.34-.31,1.38,0,2.45-.35,3.41-1.15,.22-.24,.43-.49,.65-.74,.27-.13,.53-.25,.79-.38,.65-.46,.81-.89,1.69-.91,.31,.07,1.26,.28,1.56,.35,1.3,.03,2.45-.26,3.64,.11,.47,.15,.8,.47,1.18,.59,.67,.2,1.58,.04,2.27,.23,.36,.1,.37,.6,.75,.7,.4,.03,.79,.07,1.18,.1,2.25,.81,5.87,1.04,8.07,.27,.32-.11,.41-.49,.71-.62,.36-.09,.72-.17,1.07-.26,.58-.41,.44-1.28,.97-1.72,.3-.26,.54-.07,.9-.06,.19,0,1.43-.43,1.48-.53,.06-.26,.27-.43,.32-.68,.77-.13,1.81-.52,2.53-.21,.05,.03,.1,.07,.15,.1,.1,.21,.19,.42,.29,.63,.2,.19,.57,.13,.72,.39,.14,.26,.08,.59,.3,.82,.35,.26,.7,.52,1.04,.79,.22,.07,.44,.13,.66,.2,.28,.24,.56,.47,.84,.7,.3,.17,.71,.11,1.04,.22,.22,.15,.44,.3,.65,.45,.29,.17,.84,.34,1.16,.43,.6,.04,1.19,.08,1.79,.12,.6,.28,1.2,.56,1.8,.84,.37,.04,.75,.08,1.11,.11,.23,.08,.45,.15,.68,.23,1.01,.15,3.18,.22,3.26,.22,.68-.1,1.31-.33,2.13-.29,.48,.02,1.01-.1,1.36-.38,.42-.54,.84-1.09,1.26-1.64,1.17-1.42,2.63-2.49,3.66-3.95,.11-.22,.21-.44,.31-.66,.42-.77,.82-1.54,1.21-2.32,.19-.26,.39-.51,.58-.77,.68-1.09,2.15-3.28,2.31-4.52,.25,0,.36-.57,.55-.72,0-1.16,.94-1.97,1.37-2.93,.12-.29,.06-.49,.33-.68,0-.88,2.06-5.79,2.67-6.27,0-.52,.43-.97,.61-1.41,.18-.43,.27-.91,.46-1.34,.4-.7,.79-1.39,1.19-2.09,.06-.19,.12-.38,.18-.57,.34-.53,.67-1.05,.99-1.58,.29-.72,.38-1.56,.69-2.28,.57-1.34,1.14-2.67,1.71-4,.23-.59,.23-1.3,.56-1.83,.11-.19,.25-.22,.44-.28,.02,0,.04,0,.06-.01,.02,0,.05-.02,.07-.03h.12v-.25H56.2Z"></path><path class="g" d="M88.24,13.38c.04,.12,.02,.42-.12,.42v-.12s.04-.07,.06-.12c.02-.02,.04-.04,.06-.06v-.13Z"></path><path class="g" d="M88,14.29c.03,.06,.11,.18,0,.18v-.18Z"></path><path class="g" d="M87.88,14.59c.04,.12,.08,.24,.12,.37h-.12v-.37Z"></path><path class="g" d="M87.75,15.37v.36h-.12c.04-.12,.08-.24,.12-.36Z"></path><path class="g" d="M36.97,15.67c.03,.06,.1,.18,0,.18v-.06s.06-.06,0-.06v-.06Z"></path><path class="g" d="M87.57,15.79c.04,.05,.19,.24,.06,.24v.06h-.12c.02-.1,.04-.2,.06-.3Z"></path><path class="g" d="M37.27,16.64c.06,.06,.12,.11,.19,.18-.06-.06-.12-.12-.19-.18Z"></path><path class="g" d="M86.91,16.94c.03,.06,.1,.18,0,.18v-.06s.06-.06,0-.06v-.06Z"></path><path class="g" d="M37.21,17.12v.19c-.03-.06-.11-.12,0-.12v-.06Z"></path><path class="g" d="M36.91,17.36h.18c0,.08,.04,.12-.06,.12v.06c-.04-.06-.08-.12-.12-.18Z"></path><path class="g" d="M86.79,17.36c.04,.1,.08,.21,.12,.3h-.07v-.06h-.06v-.24Z"></path><path class="g" d="M36.84,17.84h.13c-.08,.14-.16,.29-.24,.43h-.12c0-.09-.05-.18,.06-.18,.06-.08,.12-.16,.18-.24Z"></path><path class="g" d="M86.42,18.87h.18c-.06,.12-.12,.24-.18,.36h-.12c.04-.12,.08-.24,.12-.36Z"></path><path class="h" d="M103.47,19.23c.02,.8,.04,1.6,.06,2.41V102.82h-17.9c-.86,0-1.83,.08-2.6-.1-.51-.12-.35-.54-.64-.84-.24-.1-.47-.2-.71-.31-.48-.52,.16-2.73-.2-3.5-.29-.61-1.24-.05-1.69-.38-.31-.23-.28-3.22-.28-3.79-.57-.15-.91-.1-.96-.79,0-.09,.04-.17-.07-.17v-.07c-1.49-.1-.72-1.49-.96-2.58-.11-.46-.78-.43-.96-.82-.32-.72-.15-1.95-.13-2.74-.02-.36,.15-.61,.14-.96,.02-.12,.07-.58,.22-.58,0-.46,.32-1.79,.85-1.79,.03-.24,.1-.67,.43-.67-.02-.16-.04-.32-.06-.48h.06c.18-.19,.24-.32,.24-.6,.14-.75,.2-.94,.36-1.39,.68-.37,1.17-2.41,1.64-2.41,.01-.19-.07-1.2,.06-1.2,.28-.31,.54-.81,.54-1.27,1.34-1.34,.9-3.47,1.77-5,.05-.08-.03-.26,.08-.26-.02-.08,.11-.15,.09-.23,.22-.25,.42-1.65,.65-1.65,.01-.1,.16-.23,.17-.32,.59-2.13,1.31-4.75,2.5-6.57,.39-.59,.95-1.15,1.44-1.65,.3-.31,.57-.81,.76-1.19,.62-1.28,.31-2.54,.95-3.75,.31-.61,1.09-1.14,1.4-1.74,.09-.41,.17-.82,.25-1.23,.38-.61,.91-.86,1.22-1.58,.07-.19-.28-.52-.05-1.12,.09-.24,.45-.75,.46-.89,.03-.29-.14-.48-.18-.75-.03-.17,.05-.31,.17-.41,.17-.13,1.48-1.73,1.48-1.73-.13-.62,.15-1.58,.49-2.06,.29-.4,.63-.38,.63-.97-.15-.17,.06-.47,.1-.72,.15-1.06,.7-1.93,1.12-2.87,.2-.45,.62-1.05,.93-1.43,.4-.49,1.12-.82,1.41-1.4,.07-.36,.13-.73,.19-1.09,.11-.25,.23-.5,.35-.75,.03-.34-.2-.58-.1-.93,.35-1.21,1.32-2.16,1.56-3.4v-.06s-.04-.06-.06-.1c-.03-.06-.04-.1-.06-.16-.16-.7,.44-1.7,.82-2.19,.17-.22,.33-.44,.5-.65,.05-.47,.08-.93,.13-1.41,.2-.58,.41-1.14,.61-1.73,.04-.45,.08-.89,.12-1.35,.2-.44,.4-.88,.6-1.31,.02-.52,.05-1.03,.07-1.54Z"></path><path class="g" d="M86.3,19.29c.03,.08,.07,.3-.06,.3v-.12c.02-.06,.04-.12,.06-.18Z"></path><path class="g" d="M86.12,20.55c.04,.06,.11,.18,0,.18v-.18Z"></path><path class="g" d="M36.61,21.16h.12c.06,.15,.11,.32,.18,.48h-.18c-.05-.16-.08-.33-.12-.48Z"></path><path class="g" d="M85.87,21.22c.04,.06,.11,.18,0,.18v-.18Z"></path><path class="g" d="M85.81,21.58c.02,.06,.12,.18,0,.18v-.18Z"></path><path class="g" d="M37.39,22.43c.06,.1,.12,.2,.18,.3h-.18v-.3Z"></path><path class="g" d="M37.57,22.78c.04,.06,.1,.18,0,.18v-.18Z"></path><path class="g" d="M37.76,23.08h.12c.02,.08,.04,.17,.06,.24,.02,.02,.04,.04,.06,.06h-.12c-.04-.1-.08-.2-.12-.31Z"></path><path class="g" d="M85.45,23.21c.03,.06,.1,.19,0,.19v-.06s.06-.06,0-.06v-.06Z"></path><path class="g" d="M37.88,23.45h.12c.07,.16,.13,.33,.18,.49h-.12c-.07-.16-.13-.33-.18-.49Z"></path><path class="g" d="M85.33,23.69c.04,.12,.08,.24,.12,.36h-.12v-.36Z"></path><path class="g" d="M38.18,23.93h.12s-.18,.17-.18,.06c.02-.02,.04-.04,.06-.06Z"></path><path class="g" d="M38.24,24.11s.08,.08,.12,.12c.02,.02,.04,.04,.06,.06-.06-.06-.13-.12-.18-.18Z"></path><path class="g" d="M85.45,24.17c.06,.06,.24,.31,.12,.31v.06h-.12v-.36Z"></path><path class="g" d="M85.15,24.77c.03,.06,.11,.18,0,.18-.02-.02-.04-.04-.06-.06,.02-.04,.04-.08,.06-.12Z"></path><path class="g" d="M38.91,24.89s.04,.08,.06,.12c-.02-.02-.04-.04-.06-.06v-.06Z"></path><path class="g" d="M85.02,24.95c.08,0,.12-.04,.12,.06,.05,.05,.06,.06,0,.06v.06c-.04-.06-.08-.12-.12-.18Z"></path><path class="g" d="M38.91,25.08c.04,.06,.11,.18,0,.18v-.18Z"></path><path class="g" d="M38.97,25.31c.06,.02,.13,.04,.18,.06v.12h-.18v-.06s.04-.03,.06-.06h-.06v-.06Z"></path><path class="g" d="M84.85,25.43c.03,.08,.04,.24-.06,.24,.02-.08,.04-.16,.06-.24Z"></path><path class="g" d="M39.88,26.16c.08,.09,.17,.17,.24,.25,.03,.02,.05,.04,.06,.06h-.19c-.04-.1-.08-.2-.12-.31Z"></path><path class="g" d="M84.6,26.16c.04,.06,.1,.18,0,.18v-.18Z"></path><path class="g" d="M40.19,26.46s.08,.08,.12,.12c.02,.02,.04,.04,.06,.06-.06-.06-.12-.12-.18-.18Z"></path><path class="g" d="M84.48,26.59c.04,.05,.18,.18,.06,.18v.18h-.12c.02-.11,.04-.24,.06-.36Z"></path><path class="g" d="M84.36,27.01c.02,.06,.12,.18,0,.18v-.18Z"></path><path class="h" d="M.02,27.06c.47-.29,3.91,2.47,3.92,2.52,0,.01-.06,.13-.06,.14-.19,.61-1.87,1.28-2.3,1.37-.43,.01-1.14,.42-1.56,.44v-4.45Z"></path><path class="g" d="M84.12,27.55h.12s-.08,.08-.12,.12v.13h-.12c.02-.09,.02-.18,.12-.18v-.06Z"></path><path class="g" d="M41.7,28.03c.08,.03,.24,.06,.24,.18-.08-.06-.16-.12-.24-.18Z"></path><path class="g" d="M42.07,28.27h.18v.12s-.04-.04-.06-.06c-.04,.02-.08,.04-.12,.06v-.12Z"></path><path class="g" d="M83.57,28.69c.02,.1,.04,.2,.06,.3h-.12c.02-.1,.04-.2,.06-.3Z"></path><path class="g" d="M42.97,28.87c.06,.06,.12,.12,.18,.18-.06-.06-.12-.12-.18-.18Z"></path><path class="g" d="M43.34,28.99c.09,.04,.3,.13,.3,.24h.06v.06h-.18c-.06-.1-.12-.2-.18-.3Z"></path><path class="g" d="M83.39,29.11v.49h-.12v-.24c.04-.08,.08-.16,.12-.24Z"></path><path class="g" d="M44.31,29.23c-.02,.08-.03,.18-.12,.18v-.12s.08-.04,.12-.06Z"></path><path class="g" d="M44.56,29.29h.06v.06c-.05,.03-.12,.1-.12,0,.03-.02,.04-.04,.06-.06Z"></path><path class="g" d="M44.86,29.48c.14,.06,.28,.12,.42,.18v.12c-.14-.1-.28-.2-.42-.3Z"></path><path class="g" d="M45.35,29.71c.09,.02,.24,.01,.24,.12-.08-.05-.16-.08-.24-.12Z"></path><path class="g" d="M83.14,29.71c.04,.06,.11,.18,0,.18v-.18Z"></path><path class="g" d="M45.71,29.89c.06,.02,.12,.04,.18,.06v.12c-.06-.06-.12-.12-.18-.18Z"></path><path class="g" d="M83.02,30.44h.18c-.02,.06-.04,.12-.06,.19-.04,.02-.08,.04-.12,.06v-.06s-.06-.06,0-.06v-.12Z"></path><path class="g" d="M82.84,30.8h.12c-.1,.19-.2,.36-.31,.54h-.12c.1-.19,.21-.36,.31-.54Z"></path><path class="g" d="M48.56,31.22c-.06,.06-.13,.12-.18,.18v-.12c.06-.02,.12-.03,.18-.06Z"></path><path class="g" d="M49.35,31.34c.18,.02,.36,.04,.55,.06v.06h.06v.06c-.26,0-.43-.01-.61-.18Z"></path><path class="g" d="M82.3,31.4h.18c0,.08,.03,.12-.06,.12-.06,.08-.11,.17-.18,.24h-.12v-.18c.06-.06,.12-.11,.19-.18Z"></path><path class="g" d="M81.69,31.89h.18c0,.08,.03,.12-.06,.12-.02,.06-.04,.12-.07,.18-.02-.03-.04-.04-.06-.06h-.06c.02-.08,.04-.16,.06-.24Z"></path><path class="g" d="M81.57,32.36c.04,.06,.1,.18,0,.18v-.18Z"></path><path class="g" d="M81.5,32.67h.18c-.02,.08-.04,.16-.06,.24h-.12v-.24Z"></path><path class="g" d="M81.5,33.09c.05,.05,.17,.18,.06,.18-.1,.04-.2,.08-.31,.12v-.12c.08-.07,.16-.12,.24-.18Z"></path><path class="h" d="M2.13,33.32c.08,.49-1.24,2.85-1.24,2.85l-.35,.81s-.52,.73-.52,.75c-.04,0,0-2.69,0-3.98,.58-.07,1.64-.13,2.11-.43Z"></path><path class="h" d="M5.36,33.45c.55,.22,1.36,3.94,1.51,4.75,.21,1.13,.94,2.14,1.27,3.23,.02,.25,.05,.5,.07,.75,.08,.18,.17,.38,.25,.57,.17,.63,.21,1.22,.43,1.82,.29,.58,.58,1.16,.87,1.73,.04,.29,.07,.58,.1,.87,.07,.26,.31,.43,.27,.74-.05,.4-.5,.25-.72,.48-.09,.21-.19,.43-.28,.64-.03,.03-.05,.06-.08,.08-.23,.19-.64,.1-.76,.41-.03,.77-.05,1.54-.08,2.3-.04,.13-.1,.22-.23,.29-.19,.07-.38,.14-.56,.21-.41,.35,0,1.21-.3,1.64-.19,.27-.65,.17-.78,.49-.33,.84,.1,2.05-.08,2.96-.1,.47-.64,.77-.66,1.23-.01,.34,.29,.59,.19,.91-.1,.32-.58,.87-.75,1.22-.27,.54-.32,1.19-.56,1.76-.17,.35-.34,.7-.51,1.05-.26,.6-.52,1.21-.77,1.81-.03,.26-.06,.52-.09,.77-.25,.51-.49,1.02-.74,1.52-.03,.25-.06,.5-.09,.75-.22,.23-.45,.47-.67,.7,0,.08-.04,.12,.06,.12,.19,.56-.05,1.04-.11,1.63-.08,.56-.16,1.13-.23,1.69-.01,.24-.03,.5-.04,.75-.11,.22-.23,.44-.35,.65-.09,.42-.18,.82-.27,1.24-.15,.61-.47,1.14-.47,1.81H.02V41.49s1.01,.02,1.23-.16c.41-.33,.79-.86,1.05-1.26,.68-1.36,1.38-2.71,2.06-4.07,.36-.86,.26-1.68,.99-2.56Z"></path><path class="g" d="M80.71,33.51h.19c0,.09,.04,.13-.06,.13v.06h-.06s-.08,.04-.12,.06c.02-.08,.04-.16,.06-.24Z"></path><path class="g" d="M80.36,34.29h.18c-.08,.15-.16,.29-.24,.42h-.12v-.06h.06v-.06s-.04-.04-.06-.06c.06-.08,.12-.16,.19-.24Z"></path><path class="g" d="M79.99,34.96c.1,.2,0,.39,0,.6h-.12c.06-.06,.12-.12,.18-.18-.02-.14-.04-.28-.06-.42Z"></path><path class="g" d="M79.56,35.56h.18c-.2,.2-.4,.4-.6,.61v.06h-.06v-.18c.16-.16,.32-.32,.48-.48Z"></path><path class="g" d="M78.9,36.4s.19,.12,.06,.12c-.06,.04-.12,.08-.18,.12v-.12h.12v-.12Z"></path><path class="g" d="M77.2,37.43h.06s.05,.04,.06,.06v.06c-.2,.1-.41,.2-.61,.3,.03-.08,.16-.18,.06-.18,.14-.09,.29-.16,.42-.24Z"></path><path class="g" d="M76.59,38.03c.04,.06,.08,.12,.12,.19-.08,.06-.17,.12-.24,.18v.06h-.06v-.18c.06-.08,.12-.16,.18-.24Z"></path><path class="g" d="M75.62,38.45c.08,0,.18-.04,.18,.06-.06-.02-.12-.04-.18-.06Z"></path><path class="g" d="M74.65,39.36s.18,.18,.06,.18v.06h-.06v-.24Z"></path><path class="g" d="M74.47,39.72c.04,.06,.08,.12,.12,.18-.04-.01-.08-.03-.12-.06v-.12Z"></path><path class="g" d="M73.31,40.27c.09,0,.18-.04,.18,.06-.06-.02-.12-.04-.18-.06Z"></path><path class="g" d="M73.07,40.38c.09,0,.18-.05,.18,.06-.06-.02-.12-.04-.18-.06Z"></path><path class="g" d="M72.83,40.45h.18v.12c-.1,.02-.2,.04-.3,.06v-.12s.08-.04,.12-.06Z"></path><path class="g" d="M69.49,40.68h.19v.12h-.12s-.04-.08-.06-.12Z"></path><path class="g" d="M69.86,40.68h.18v.18c-.06-.06-.12-.12-.18-.18Z"></path><path class="g" d="M65.85,40.74c.06,.06,.12,.12,.19,.19h-.06c-.04-.06-.08-.12-.12-.19Z"></path><path class="g" d="M70.71,40.8c.22,.03,.45,.04,.67,.06v.12c-.24-.03-.48-.04-.67-.18Z"></path><path class="g" d="M69.31,40.86h.12s-.08,.09-.12,.12v-.12Z"></path><path class="g" d="M70.1,40.86h.19v.12h-.12s-.04-.08-.06-.12Z"></path><path class="g" d="M67.61,40.98c.08,.01,.24,.1,.24,0h.06v.12c-.1-.03-.2-.08-.3-.12Z"></path><path class="k" d="M99.47,51.47c-.02,.1-.02,.42-.12,.42-.38,.24-.82,.67-.61,1.17,.06,.15,.13,.31,.2,.45-.03,.2-.26,.5-.14,.7,.17,.27,1.03,.52,1.03-.03-.01-.08-.03-.12,.06-.12,.04-.03,.08-.05,.12-.06v.06s.04-.05,.06-.06c.66-.31,.83-.37,1.08-1.07,.06-.17,.13-.33,.2-.5-.45-.12-.73-.42-.73-.9-.38-.02-.77-.04-1.15-.06Z"></path><path class="h" d="M22.95,64.67c.3,.08,.56,.23,.75,.5,.16,.4,.32,.79,.48,1.19,.03,.25,.06,.5,.1,.75,.55,1.28,1.45,2.38,1.91,3.72,.05,.15-.03,.64-.02,.64,.36,.5,.42,.89,.61,1.48,.27,.85,.65,1.68,.96,2.5,.08,.33,.15,.67,.23,1,.25,.45,.49,.9,.74,1.35,.36,.86,.73,1.71,1.09,2.56,.46,.97,1.15,1.77,1.15,2.98,.02,.01,.42,.12,.51,.29,.06,.26,.12,.53,.17,.79,.11,.27,.45,.59,.43,.91-.03,.68-.39,1.2-.39,1.99,0,3.37,.01,6.75,.01,10.12,.01,.51,.26,.86,.32,1.33,0,.52,0,1.04,0,1.56,.05,.46,.27,.75,.35,1.16,0,.44,0,.88-.01,1.32H12.69s-.01-1-.02-1.44c.03-.14,.46-1.41,.46-1.81,.05-.08,.08-1.27,.24-1.27,.08-.12,.25-1.56,.25-2.54-.05-.66,.16-1.35,.36-1.74,.02-.03,.04-.04,.06-.07,.24-.58,.36-1.28,.31-1.98-.04-.2,.07-.47,.03-.67,0-.08,.31-1.04,.23-1.22-.06-.52,.21-1.24,.21-1.43,.02,0,.53-4.23,.91-4.86,.1-.16,.5-1.28,.58-1.86,.04-.25,.13-1.01,.1-1.02,.06-.07,.27-.8,.24-.83,.2-.24,.25-1.26,.36-1.26,.29-.46,.26-1.35,.24-1.39,.12-.17,.35-1.32,.33-1.37,.04-.02,.61-.48,.52-.48,.1-.36,.2-1.5,.2-1.54-.13-1.43,.64-1.38,.64-1.4,.08-.3,.07-.38,.15-.69,0-.51-.03-1,.47-1.13,.03,0,.5-.85,.74-1.43,.12-.29,.34-.52,.52-.77,.27-.38,.29-.69,.4-1.14,.09-.21,.18-.4,.26-.61,0-.12,.02-.55-.05-.55,.18-.15,.37-.3,.55-.45,.3-.42,.25-1.17,.96-1.17v-.06Z"></path><path class="k" d="M98.62,67.2v.06c-.55,.22-1.08,.45-1.43,.98-.14,.23-.28,.44-.43,.66-.41,.38-.91,.42-1.32,.75-.26,.2-.34,.52-.51,.76-.24,.26-.47,.52-.71,.78-.33,.52-.65,1.06-.98,1.58-.22,.26-.45,.53-.67,.79-.11,.26-.1,.7-.02,.97,.15,.44,.94,.53,1.26,.8,.43,.35,.64,.68,.66,1.27,0,.08-.02,.12,.07,.12v.06c.71,.04,1.29,.15,1.92,.36,.52,.18,.86,.69,1.52,.52,.33-.16,.67-.33,1-.5,.25-.07,.5-.14,.74-.21,.41-.22,1.66-1.21,2.04-1.21v-.06c-1.85,.31-.08-1.86,.61-2.16,.1-.05,.2-.1,.31-.15-.08-.12-.15-.22-.23-.33-.65-1.02-1.95-.93-.73-2.27,.21-.19,.42-.38,.64-.58-.02-.02-.04-.03-.06-.06-.19-.35-.66-.99-.99-1.22-.2-.07-.4-.13-.6-.2-.14-.1-.27-.18-.41-.27-.35-.12-.4-.4-.69-.56-.19-.06-.39-.12-.59-.19-.14-.17-.28-.35-.42-.53Z"></path><path class="g" d="M.02,77.08c.03,.06,.11,.18,0,.18v-.18Z"></path><path class="g" d="M33.75,86.66c.08,.1,.16,.21,.24,.3h-.19c-.02-.09-.04-.2-.06-.3Z"></path><path class="g" d="M35.87,90.34c.09,0,.13-.04,.13,.06,.02,.02,.04,.04,.06,.06-.06-.04-.12-.08-.19-.12Z"></path><path class="g" d="M35.51,94.5c0,.06-.06,.06,0,.06v-.06Z"></path><path class="g" d="M34.85,96.91v.18c-.03-.06-.11-.12,0-.12v-.07Z"></path><path class="g" d="M34.05,99.8c.04,.06,.11,.18,0,.18v-.18Z"></path><path class="g" d="M34.05,100.59s.11,.18,0,.18v-.18Z"></path><path class="g" d="M33.99,101.37c.04,.06,.1,.19,0,.19v-.19Z"></path><path class="i" d="M15.79,12.3c.41,.06,.82,.13,1.23,.21,.35,.12,.67,.52,1.07,.52v-.12c.08,0,.12-.03,.12,.06,.17,.17,.35,.33,.52,.5,.35,.33,.58,.3,.19,.82-.06,.08-.12,.25-.23,.25v.12h.06c.08,.04,.16,.08,.24,.12-.21,.42-.85,1.33-1.4,1.33-.12,0-.92,.03-.95,.05-.2,.1-.33,.33-.57,.34-.25,.01-1.86-.59-2-.75-.15-.17-.12-.41-.05-.61,.02-.07,.1-.18,0-.18,.04-.04,.08-.08,.12-.12,.31-.63,.79-1.23,1.14-1.84,.16-.28,.44-.32,.49-.69Z"></path><path class="k" d="M15.73,12.3s.04,.08,.06,.12c.02,.04,.05,.08,.06,.12-.19,.12-.29,.24-.55,.24v.12c-.04,.09-.01,.3-.12,.3-.08,.02-.18,.02-.18,.12,.02,.24-1.18,1.98-1.22,1.98,.03,.01,.05,.03,.07,.04,.08,.55,1.22,.93,1.69,.93,.43,.35,1.49-.18,2.13-.18v-.06c.12-.03,.24-.04,.36-.06h0c.25-.3,.97-.81,.97-1.21h-.06c-.08-.04-.16-.08-.24-.12,.2-.28,.4-.56,.61-.85v-.18h-.12c-.21-.09-.97-.47-.97-.72-.52,.08-.77-.25-1.19-.39-.43-.07-.87-.14-1.3-.21Z"></path><path class="k" d="M100.31,0s-.94,3.19-1.29,4.29c-.11,.44-.2,.88-.31,1.31-.15,.45-.3,.89-.45,1.34-.09,.46-.39,1.56-.44,1.63,.02,0-.26,.54-.36,.66-.02,.1-.25,.62-.37,.72,.02,.11-.43,.75-.67,.96,.02,.1-1.23,1.74-1.27,1.89-.14,.26-.77,1.92-.85,2.15-.1,.24-.38,1.07-.43,1.14,.09,0-1.22,1.92-1.26,2.05-.21,.42-.37,1.24-.56,1.39,0,.42,0,.68-.18,1.03,0,0-.35,.7-.53,.93-.29,.37-.42,.91-.5,.95,0,.28-.16,1.04-.3,1.26,.09,0-.61,1.23-.73,1.38-.11,0-.29,.64-.36,.72,.29,0-.37,1.16-.42,1.33,.03,0-.45,.93-.49,.96,0,.09-.88,1.7-.97,1.93-.28,.34-.63,.95-.61,.97-.12,.24-.24,.48-.36,.72-.1,0-.61,.71-.71,.91-.15,.22-.8,1.74-.93,1.92-.02,.02-.04,.04-.06,.06-.1,0-.61,1.18-.73,1.32,.02,.1-.26,.49-.33,.58,0,.4-.53,.54-.6,.9-.23,.31-.42,.68-.64,.98,0,0-.15,.63-.37,.74-.04,.02-.65,.42-.69,.45,0,.45-.35,.47-.58,.82-.04,.02-.08,.04-.12,.06-.06,.14-.12,.27-.18,.42-.04,.09-.08,.17-.12,.24-.13,.18-.26,.34-.39,.52-.35,.32-.69,.63-1.04,.95-.85,.84-1.72,1.82-2.62,2.71-.39,.38-.77,.75-1.16,1.13-.04,.02-.08,.04-.12,.06,0,.21-.28,.42-.41,.56-.29,.28-.6,.67-.96,.81-.47,.19-2.73,.17-3.2,0-.25-.08-.37-.26-.58-.41-.08-.06-.16-.12-.24-.18v-.06c-.06,.03-.12,.04-.17,.06-.39,0-.79,.02-1.1-.12,0,0-.7-.84-1.09-.84h-.37c-.6,0-.79-.48-1.25-.65-.58-.21-1.13-.21-1.66-.5-.02,.03-.04,.04-.06,.06-.14-.12-.29-.24-.42-.36-1.12,0-1.5-1.53-.18-1.33,0-.26,.6-.26,.72-.5,0-.07,.02-.14,.03-.22-.06-.2-.13-.41-.2-.61,0-.42,.45-.89,.22-1.28,0-.01-.01-.02-.02-.03-.02-.03-.05-.06-.08-.09-.07-.04-.14-.08-.21-.12-.6-.03-1.2-.04-1.81-.08-.33-.02-.51-.17-.8-.23-.36-.04-.71-.06-1.07-.1-.62-.29-1.24-.57-1.86-.85-.59-.04-1.19-.08-1.78-.12-.69-.14-1.23-.61-1.85-.89-.31-.05-.62-.11-.93-.15-.3-.25-.61-.49-.92-.74-.24-.08-.48-.15-.72-.24-.36-.28-.72-.54-1.07-.82-.1-.27-.19-.54-.29-.82-.01-.02-.03-.04-.05-.06,0-.01-.01-.01-.02-.03-.21-.1-.42-.2-.63-.29-.19-.19-.13-.57-.4-.71-.46-.23-1.39-.12-1.94-.09-.1,0-.2,0-.3,.01-.14,.05-.29,.1-.42,.15-.21,.23-.08,.6-.35,.8-.06,.04-1.09,.51-1.18,.53-.44,.06-.75-.24-1.11,.1-.49,.46-.36,1.32-.94,1.7-.34,.08-.68,.15-1.02,.23-.29,.11-.38,.44-.64,.6-.27,.11-.56,.22-.83,.33-1.5,0-2.99-.02-4.49-.02-.95-.12-1.99-.4-2.92-.55-.36-.02-.72-.05-1.07-.08-.41-.1-.41-.58-.77-.71-.69-.24-1.5-.06-2.26-.22-.36-.09-.64-.54-1-.68-.55-.22-3.26-.47-3.87-.27-.95,0-1.37-.29-2.28,.01-.35,.12-.61,.51-.9,.74-.29,.15-.57,.29-.85,.43-.47,.38-.66,.8-1.21,1.07-.48,.24-.96,.47-1.45,.71-.46,.11-1.2-.09-1.57,.18-.1,.22-.21,.44-.31,.66-.24,.11-.47,.21-.71,.32-.22,.19-.21,.64-.36,.89-.19,.02-.38,.04-.57,.07-.04,.04-.08,.08-.12,.13-.09,.2-.17,.4-.26,.61-.21,.22-.65,.12-.77,.44,0,.01,0,.03-.01,.05-.13,.44,.11,1.07-.14,1.44-.39,.57-1,1-1.05,.97-.21-.34-.32-.75-.53-1.09-.24-.73-.36-1.37-.57-2.11-.28-1.03-.83-2.01-1.18-3.01-.05-.3-.09-.61-.14-.91-.23-.73-.43-1.55-.65-2.3-.08-.18-.04-.28-.12-.47-.04-.27-.21-.64-.26-.9-.17-.58-.73-1.41-.53-2.05,.25-.82,2.54,.75,2.9,1.07,.49,.42,2.26,1.07,2.84,.47,.79-.81-.77-1.85-1.31-2.08-.36-.17-1.06-.23-1.11-.69,.59,0,1.04-.26,1.53-.36,1.93-.42,3.71-1.1,5.59-1.63,.37-.03,.74-.07,1.12-.11,.61-.15,1.3-.43,1.9-.57,.55-.12,1-.12,1.46-.43,.28-.19,.26-.8,.17-1.1-.08-.3-.72-.9-1.03-.95-.66-.1-1.06,.12-1.59,.27-.89,.24-1.77,.4-2.62,.66-.39,.04-.78,.08-1.18,.11-1.5,.51-3.01,1.01-4.52,1.51-.37,.04-.74,.08-1.11,.12-.84,.22-2.2,.92-3.14,.51-.14-.06-.2-.18-.22-.34,.01-.1,.02-.19,.03-.29,.05-.1,.09-.2,.14-.31,.47-1.06,.76-2.18,1.18-3.28,.19-.39,.11-.91,.29-1.31,.14-.67,.5-2.35-.54-2.15-.39,0-.77,.03-1.09,.19-.5,.26-.97,1.87-1.22,2.41-.11,.22-.26,1.43-.48,1.58,0-.4-.22-1.58-.31-1.92-.24-.9-.36-1.77-.65-2.61-.04-.3-.09-.61-.14-.91-.48-1.39-.56-2.72-.92-4.19-.4-1.14-.45-2.54-.84-3.68-.04-.27-.42-1.38-.59-2.25-.03-.15-.09-.24-.17-.33-.04-.13-.08-.26-.12-.4-.17-.02-.64,.13-1.01,.28-.23,.06-.4,.13-.4,.13l-.19,.21s-.02,0-.03,.01c0,0,0,.01,0,.02l-.18,.45,.29,2.11c.81,4.98,1.03,5.16,1.39,6.45,.4,1.45,.47,2.52,.84,4,.1,.21,.05,.57,.14,.78,.14,.7,.24,1.29,.39,1.98,.08,.43,.26,.68,.26,1.21-.02,0-.35-.17-.5-.28C1.28,24.67,.02,24.75,.02,24.75v2.31c.77,0,1.98,1.38,2.64,1.83,.42,.21,.83,.43,1.24,.65v.12c-.09,.09-.18,.18-.27,.27-.58,.61-1.54,.99-2.34,1.14-.34,.06-.84-.03-1.12,.15,0,.01-.14,.06-.14,.06v2.72s1.4-.44,2-.59v.18c-.14,0-.13,.36-.15,.48-.61,1.27-1.25,2.36-1.85,3.63,0,1.78,0,2.26,.02,3.83,.38,0,.9,.11,1.21-.06,.71-.4,2.82-4.63,3.13-5.51,.24-.7,.35-1.79,.93-2.31,.04-.01,.08-.04,.12-.06,.33-.04,.72,1.77,.83,2.13,.13,.4,.17,.84,.3,1.27,.08,.17,.09,.49,.17,.66,.03,.34,.38,1.28,.41,1.5,.38,1.07,.38,.88,.72,1.96,.02,.25,.32,.82,.34,1.07,.08,.17,.16,.34,.24,.52,.2,.59,.24,1.24,.43,1.83,.29,.59,.59,1.18,.89,1.78,.03,.29,.07,.58,.1,.86,.08,.27,.33,.45,.26,.79-.03,.06-.07,.12-.1,.18-.21,.08-.41,.17-.61,.25-.22,.22-.12,.56-.38,.75-.21,.15-.58,.09-.7,.34-.04,.8-.81,2.62-.98,2.95-.05,.48-.88,1.68-1,2.08-.27,.87,.12,2.02-.08,2.91-.11,.48-.67,.79-.65,1.28,.1,.25-.1,1.29-.29,1.53-.33,.63-1.53,3.73-1.72,3.9,0,.48-.25,.75-.38,1.16-.04,.31-.09,.63-.14,.93-.3,.77-1.32,2.74-1.42,2.91-.11,0-.35,3.88-.37,4.19-.12,.24-.24,.47-.36,.7-.3,1.16-.59,2.32-.88,3.48,0,8.44-.02,16.87-.03,25.31H12.76c0-.47-.18-.98-.08-1.51,.14-.25,.29-.51,.42-.76,.17-.52,.33-1.06,.5-1.59-.09,0-.11-.09-.14-.15-.24-.47,.08-.73,.44-.94v-.06s.04-.04,.06-.07c-.04-.04-.08-.08-.12-.12-.26-.56-.36-1.99-.11-2.62,.14-.17,.27-.33,.41-.5-.02-.19-.04-.37-.07-.56,.09-.44,.28-.9,.34-1.39,.06-.48-.15-1.04-.02-1.44,.08-.24,.26-.33,.48-.42-.06-.2-.12-.41-.19-.6-.1,0-.05-.06-.03-.13,.08-.4,.37-.45,.58-.77-.06-.14-.12-.26-.19-.4-.19-.44,.27-.67,.55-.88,.02-.02,.04-.04,.06-.06-.05-.05-.1-.09-.15-.14-.19-.33-.32-1.01-.06-1.35,.1-.15,.32-.26,.34-.46-.05-.2-.1-.4-.15-.59-.14-.83-.12-1.63,.63-1.92-.06-.17-.13-.33-.2-.5-.02-.37,.35-.72,.5-1.01-.1,0-.11-.1-.14-.18-.22-.48,.06-.71,.38-1.03,.11,0-.03-.17-.06-.24-.17-.42,.17-.57,.32-.92,.1-.25-.06-.44-.02-.68,.07-.5,.66-.69,.19-1.23,0-.41,.37-.58,.61-.84,.06,0,.04-.02,0-.06,0-.26-.19-.38-.12-.66,1.22,0,.42-2.26,.65-2.79,.09-.21,.35-.3,.56-.35,.08-.29,.17-.57,.25-.86,.06-.35,.12-.72,.18-1.07,.08,0,.16-.01,.23-.03,.97-.21,.4-.86,.69-1.57,.15-.36,.62-.46,.79-.85,.04-.36,.09-.73,.14-1.1,.08-.15,.15-.32,.23-.47,.03-.22,.06-.44,.09-.66,.17-.18,.34-.35,.5-.53,.1-.26,.2-.52,.29-.79,.32-.47,.96-.02,1.27-.33,.02-.08,.04-.17,.06-.24-.18,0-.25-.29-.28-.43-.13-.48-.29-1.52,.13-1.88,.25-.22,.69-.39,.8-.73,0-.36,.01-.72,.02-1.07,.18-.44,.36-.88,.55-1.32,.15,.04,.28,.08,.42,.12,.06-.08,.11-.15,.17-.24,.41-.29,.77,.26,1.12,.35,.28,.03,.57,.06,.85,.1,.16,.14,.33,.28,.49,.41,.34,.19,.67,.37,1.01,.55,.38,.1,.76,.19,1.13,.29,.33,.19,.55,.56,.93,.68,.42,.13,1.55,.22,1.99,.19,.25-.03,.5,0,.66,.19,.03,.06,.07,.13,.1,.19,.12,.35,.23,.7,.34,1.06,.17,.33,.33,.67,.49,1,.26,.95,.39,1.96,.79,2.86,.31,.7,.82,1.28,1.17,1.97,.38,.78,.77,1.56,1.15,2.34,.43,.69,1.5,1.99,1.5,2.82,0,0,1.42,2.64,1.52,2.77-.07,0,.12,.31,.15,.42,.28,1.12,.7,1.8,1.09,2.78,.13,.5,.26,.99,.4,1.5,.07,.28,.14,.56,.21,.85,0,.56,.02,1.12,.02,1.67,.09,.39,.19,.77,.28,1.16,.13,.78-.02,1.77-.32,2.41,.02,.56,.04,1.13,.06,1.69-.01,2.67-.03,5.33-.03,8,.1,.37,.2,.74,.29,1.11,.03,.59,.04,1.19,.07,1.79,.1,.39,.19,.78,.28,1.16,.02,.54,.04,1.08,.05,1.62h34.95c0-1.12-.43-1.99-.63-2.96-.14-.67-.25-1.25-.4-1.9-.09-.22-.18-.46-.27-.69-.03-.46-.06-.91-.09-1.37-.07-.19-.14-.38-.22-.57-.04-.26-.08-.53-.11-.8-.09-.21-.18-.43-.26-.64v-4.45c.06-.54,.24-1.17,.29-1.76,.05-.64-.19-1.82,.22-2.23,.1,0,.06-.15,.07-.24,0-.7,.23-1.38,.73-1.81,0,0,.31-.58,.42-.67h.06c-.02-.16-.04-.32-.06-.48,.12-.06,.24-.12,.37-.18,0-.36,.15-.46,.22-.75,0-.31,.01-.63,.02-.94,.61,0,1.07-2.26,1.76-2.59,0-.36-.08-.75-.06-1.14,.25,0,.46-.69,.67-.84,0-.47,.87-1.54,1.07-2.09,.03-.45,.07-.9,.09-1.35,.11-.48,.21-.96,.32-1.44,.19-.42,.38-.84,.58-1.25,.55-1.31,.93-2.7,1.45-4,.49-1.25,.76-2.57,1.46-3.7,.76-1.27,2.11-1.99,2.66-3.37,.17-.8,.34-1.6,.51-2.4,0-.24-.01-.47-.02-.7,0-.02,0-.03,.01-.05,.16-.44,.36-.93,.67-1.3,.35-.41,.74-.7,.98-1.17,.19-.38,.03-.91,.28-1.26,.41-.56,.9-.86,1.18-1.51,.11-.24-.06-.44-.05-.69,0-.33,.29-.96,.59-1.12,.08-.03,.16-.06,.25-.08v-.12c-.1,0-.15-.16-.2-.24-.13-.2-.47-.42-.34-.7,.13-.31,.52-.44,.75-.67,.31-.38,.61-.76,.91-1.14,.23-.36,.28-1.63,.46-2.14,.46,0,.66-.51,.77-.86,.11-.34-.13-.63-.01-.99,.43-1.42,1.21-2.84,1.95-4.11,.35-.6,1.22-.93,1.52-1.59,.05-.33,.1-.67,.15-1,.12-.25,.24-.5,.36-.75,.02-.32-.18-.55-.11-.89,.17-.85,.74-1.46,1.09-2.22,.16-.37,.32-.74,.48-1.11,0-.31-.2-.58-.14-.96,.08-.5,.51-1.28,.84-1.68,.17-.22,.33-.43,.5-.65,.03-.43,.07-.86,.11-1.29,.1-.63,.47-1.23,.63-1.83,.04-.45,.08-.9,.12-1.35,.22-.52,.43-1.02,.64-1.53,.12-2.45,.09-4.89,.09-7.29V0h-3.22Z"></path><path class="d" d="M59.24,50.45c-.4,.19-1.05,.06-1.41,.3-1.18,.79-.38,.75-.69,1.74-.1,.32-.64,.84-.92,1.04-.05,.02-.1,.04-.14,.06-1.05,.13-.9,.43-1.45,1.09-.22,.27-.44,.39-.44,.77-.13,.02-.49,.21-.49,.36-.19,.27-.1,.63-.49,.73-.08,.03-.18,.09-.18,0-.13,.21,.32,1.32,.49,1.32,0,.18,.09,.55,.3,.55v.42c-.22,.22,.08,.79,.36,.79,.02,.12,.04,.24,.06,.36,0,.09,.14,.29,.25,.29v.13c-.31,.3,0,.95,0,1.39-.2,.26,.18,.67,.18,.96,.2,.38,.04,.87,.13,1.3,.08,.19,.15,.38,.23,.57,.04,.04,.08,.08,.13,.12-.09,.32-.17,.65-.25,.97-.19,.03-.61,.25-.61,.48,.08,.04,.16,.08,.24,.12v-.06c-.06-.04-.26-.24-.12-.24,.24,.26,.63,.18,.89,.38,.29,.22,.2,.63,.47,.83,.33,.17,.65,.35,.97,.52,.54,.33,.93,.71,1.53,.93,.4,.09,.8,.18,1.2,.28,.59,.25,1.4,.79,2.09,.79,.06-.06,.12-.12,.19-.19,.08,0,.12-.04,.12,.06,.2,.14,.41,.27,.62,.41,.26,.06,.58-.03,.8,.09,.56,.29,.86,.85,1.36,1.24,.27,.12,.54,.24,.82,.36,.38,.22,.62,.61,1.09,.31,.03-.02,.06-.05,.1-.07h-.06c.46-.1,.68,.36,1.04,.46,.12,.04,.45-.16,.36-.16v-.06h.43c.12,.06,.24,.12,.36,.18,0-.11,.43-.12,.55-.12,0-.12-.04-.48,.06-.48v.18h.06c.08-.2,.85-1.02,.79-1.02,.22-.02,.44-.04,.67-.06,.02-.02,.04-.04,.06-.06,.03-.08,.01-.18,.12-.18,0-.09-.04-.24-.12-.24h-.12c.08-.22,.16-.44,.24-.66,.29-.33,.73-.35,1.05-.64,.23-.2,.58-.81,.58-.81,.05-.08,.14-.3,.24-.3v.06h.24c.05-.2,0-.66,0-.66,.27-.31,.54-1.03,.54-1.03h.06v-.6h.06c-.01-.27,.02-1.08-.37-1.08,.15-.97,.15-1.39-.18-2.23-.03-.08-.03-.25-.12-.25,.21-.34,.06-.89,.06-1.32-.46-.34-.17-1.09-.17-1.56-.13-.15-.37-.39-.37-.61-.41-.33-.12-1.44-.85-1.44,0-.13-.04-.6,.06-.6v.24h.06c-.06-.19-.22-.6-.49-.6,.02-.18,.04-.36,.06-.54h.06c-.03-.79,.06-2.04-1.06-1.77-.35,.08-.41,.54-.84,.56-.32,.01-.45-.41-.7-.41-.12-.43-.97-.59-.97-.24-.27-.16-.33-.45-.57-.62-.24-.08-.47-.15-.7-.21-.31-.18-.63-.35-.94-.53-.21,.03-.42,.06-.64,.09v-.06c-.07-.1-.05-.12-.18-.12,.04-1.27-1.25-.44-1.65-.54-.28-.06-.45-.25-.78-.25v-.06c-.37-.44-.53-.03-.95-.17-.3-.17-.6-.33-.9-.5-.04-.03-.08-.08-.08,0h-.12c-.08-.03-.16-.05-.24-.08-.94,.06-.34,0-1.1-.4Z"></path></g></g></g></svg>
