<?xml version="1.0" encoding="UTF-8" standalone="no"?>
<svg
   id="svg211948"
   viewBox="0 0 544.44238 97.824005"
   height="97.824005"
   width="544.44238"
   version="1.1"
   xmlns:xlink="http://www.w3.org/1999/xlink"
   xmlns="http://www.w3.org/2000/svg"
   xmlns:svg="http://www.w3.org/2000/svg"
   xmlns:rdf="http://www.w3.org/1999/02/22-rdf-syntax-ns#"
   xmlns:cc="http://creativecommons.org/ns#"
   xmlns:dc="http://purl.org/dc/elements/1.1/">
  <metadata
     id="metadata211954">
    <rdf:rdf>
      <cc:work
         rdf:about="">
        <dc:format>image/svg+xml</dc:format>
        <dc:type
           rdf:resource="http://purl.org/dc/dcmitype/StillImage" />
      </cc:work>
    </rdf:rdf>
  </metadata>
  <defs
     id="defs211952" />
  <linearGradient
     spreadMethod="pad"
     y2="0.30000001"
     x2="-0.1"
     y1="1.2"
     x1="0.30000001"
     id="3d_gradient2-logo-24885591-b378-4c55-b87b-b7d42ed10694">
    <stop
       id="stop211929"
       stop-opacity="1"
       stop-color="#ffffff"
       offset="0%" />
    <stop
       id="stop211931"
       stop-opacity="1"
       stop-color="#000000"
       offset="100%" />
  </linearGradient>
  <linearGradient
     gradientTransform="rotate(-30)"
     spreadMethod="pad"
     y2="0.30000001"
     x2="-0.1"
     y1="1.2"
     x1="0.30000001"
     id="3d_gradient3-logo-24885591-b378-4c55-b87b-b7d42ed10694">
    <stop
       id="stop211934"
       stop-opacity="1"
       stop-color="#ffffff"
       offset="0%" />
    <stop
       id="stop211936"
       stop-opacity="1"
       stop-color="#cccccc"
       offset="50%" />
    <stop
       id="stop211938"
       stop-opacity="1"
       stop-color="#000000"
       offset="100%" />
  </linearGradient>
  <g
     id="logo-group"
     transform="translate(-185.54797,-175.3735)">
    <image
       xlink:href=""
       id="container"
       x="272"
       y="144"
       width="480"
       height="480"
       style="display:none" />
    <image
       xlink:href=""
       id="icon_container"
       style="display:none"
       x="0"
       y="0"
       width="0"
       height="0" />
    <g
       id="g18"
       transform="translate(-91.179677,-177.97015)">
      <path
         style="fill:#388ec7;fill-opacity:1;stroke:none;stroke-width:1.41128"
         d="m 650.16134,532.23713 -33.31908,17.65778 -13.63054,6.42952 -13.63053,-6.42952 -33.31907,-17.65778 c 0,5.32502 -2.24747,16.12101 0.77828,20.72433 1.84892,2.81293 6.84753,4.46784 9.82323,6.09432 8.26868,4.51957 16.72019,8.751 24.98932,13.27082 3.1083,1.69895 7.62988,5.16897 11.35877,5.21476 3.70778,0.0455 8.2451,-3.55102 11.35878,-5.19752 8.33909,-4.40967 16.72005,-8.76818 24.98932,-13.28806 3.05286,-1.66866 8.68533,-3.49778 10.14461,-6.69253 2.3911,-5.23485 0.45691,-14.46175 0.45691,-20.12612 m -46.19236,16.00215 c 3.59731,-0.51544 7.48607,-3.47354 10.60152,-5.12097 7.58911,-4.0131 15.20174,-8.00941 22.71755,-12.13797 3.53683,-1.94283 9.05374,-3.7013 11.65911,-6.69847 3.28982,-3.78453 1.93068,-13.45759 -2.58668,-15.74886 -4.7363,-2.40229 -8.80251,1.12086 -12.85868,3.25251 l -21.20306,11.2665 c -2.56736,1.35182 -6.01463,4.01777 -9.08702,4.01777 -3.29073,0 -7.12524,-2.97742 -9.84427,-4.47101 -6.50984,-3.57597 -13.17851,-6.90091 -19.68854,-10.47698 -2.85668,-1.56921 -7.10587,-4.85415 -10.60153,-4.52437 -7.2756,0.6864 -9.69308,11.97712 -5.60111,16.68444 2.43875,2.80547 7.56529,4.49972 10.90188,6.26408 7.83167,4.14137 15.6667,8.28474 23.4748,12.46456 3.21433,1.72068 8.18431,5.79216 12.11603,5.22877 m 30.29007,-45.33762 v -1.39693 l -18.17404,-8.90973 -12.11603,4.65427 -12.87329,-4.72164 -18.93129,8.9771 v 1.39693 l 21.20305,11.17542 9.84427,4.34169 9.84428,-4.33415 z"
         id="path17" />
      <text
         xml:space="preserve"
         style="font-size:96px;line-height:0;font-family:Comfortaa;-inkscape-font-specification:Comfortaa;fill:#ff7f2a;fill-opacity:1;stroke-width:51.0236;stroke-linecap:round;stroke-linejoin:round;stroke-miterlimit:0"
         x="375.58929"
         y="654.58136"
         id="text18"><tspan
           id="tspan18"
           x="375.58929"
           y="654.58136">Katenary</tspan></text>
    </g>
    <path
       style="fill:#388ec7;fill-opacity:1;stroke:none;stroke-width:1.41128"
       d="m 558.98167,600.50526 -33.31908,17.65778 -13.63054,6.42952 -13.63053,-6.42952 -33.31907,-17.65778 c 0,5.32502 -2.24747,16.12101 0.77828,20.72433 1.84892,2.81293 6.84753,4.46784 9.82323,6.09432 8.26868,4.51957 16.72019,8.751 24.98932,13.27082 3.1083,1.69895 7.62988,5.16897 11.35877,5.21476 3.70778,0.0455 8.2451,-3.55102 11.35878,-5.19752 8.33909,-4.40967 16.72005,-8.76818 24.98932,-13.28806 3.05286,-1.66866 8.68533,-3.49778 10.14461,-6.69253 2.3911,-5.23485 0.45691,-14.46175 0.45691,-20.12612 m -46.19236,16.00215 c 3.59731,-0.51544 7.48607,-3.47354 10.60152,-5.12097 7.58911,-4.0131 15.20174,-8.00941 22.71755,-12.13797 3.53683,-1.94283 9.05374,-3.7013 11.65911,-6.69847 3.28982,-3.78453 1.93068,-13.45759 -2.58668,-15.74886 -4.7363,-2.40229 -8.80251,1.12086 -12.85868,3.25251 l -21.20306,11.2665 c -2.56736,1.35182 -6.01463,4.01777 -9.08702,4.01777 -3.29073,0 -7.12524,-2.97742 -9.84427,-4.47101 -6.50984,-3.57597 -13.17851,-6.90091 -19.68854,-10.47698 -2.85668,-1.56921 -7.10587,-4.85415 -10.60153,-4.52437 -7.2756,0.6864 -9.69308,11.97712 -5.60111,16.68444 2.43875,2.80547 7.56529,4.49972 10.90188,6.26408 7.83167,4.14137 15.6667,8.28474 23.4748,12.46456 3.21433,1.72068 8.18431,5.79216 12.11603,5.22877 m 30.29007,-45.33762 v -1.39693 l -18.17404,-8.90973 -12.11603,4.65427 -12.87329,-4.72164 -18.93129,8.9771 v 1.39693 l 21.20305,11.17542 9.84427,4.34169 9.84428,-4.33415 z"
       id="path18" />
    <g
       id="g19">
      <path
         style="fill:#388ec7;fill-opacity:1;stroke:none;stroke-width:1.41128"
         d="m 280.25003,221.48792 -33.31908,17.65778 -13.63054,6.42952 -13.63053,-6.42952 -33.31907,-17.65778 c 0,5.32502 -2.24747,16.12101 0.77828,20.72433 1.84892,2.81293 6.84753,4.46784 9.82323,6.09432 8.26868,4.51957 16.72019,8.751 24.98932,13.27082 3.1083,1.69895 7.62988,5.16897 11.35877,5.21476 3.70778,0.0455 8.2451,-3.55102 11.35878,-5.19752 8.33909,-4.40967 16.72005,-8.76818 24.98932,-13.28806 3.05286,-1.66866 8.68533,-3.49778 10.14461,-6.69253 2.3911,-5.23485 0.45691,-14.46175 0.45691,-20.12612 m -46.19236,16.00215 c 3.59731,-0.51544 7.48607,-3.47354 10.60152,-5.12097 7.58911,-4.0131 15.20174,-8.00941 22.71755,-12.13797 3.53683,-1.94283 9.05374,-3.7013 11.65911,-6.69847 3.28982,-3.78453 1.93068,-13.45759 -2.58668,-15.74886 -4.7363,-2.40229 -8.80251,1.12086 -12.85868,3.25251 l -21.20306,11.2665 c -2.56736,1.35182 -6.01463,4.01777 -9.08702,4.01777 -3.29073,0 -7.12524,-2.97742 -9.84427,-4.47101 -6.50984,-3.57597 -13.17851,-6.90091 -19.68854,-10.47698 -2.85668,-1.56921 -7.10587,-4.85415 -10.60153,-4.52437 -7.2756,0.6864 -9.69308,11.97712 -5.60111,16.68444 2.43875,2.80547 7.56529,4.49972 10.90188,6.26408 7.83167,4.14137 15.6667,8.28474 23.4748,12.46456 3.21433,1.72068 8.18431,5.79216 12.11603,5.22877 m 30.29007,-45.33762 v -1.39693 l -18.17404,-8.90973 -12.11603,4.65427 -12.87329,-4.72164 -18.93129,8.9771 v 1.39693 l 21.20305,11.17542 9.84427,4.34169 9.84428,-4.33415 z"
         id="path19" />
      <text
         xml:space="preserve"
         style="font-size:96px;line-height:0;font-family:Comfortaa;-inkscape-font-specification:Comfortaa;fill:#ff7f2a;fill-opacity:1;stroke-width:51.0236;stroke-linecap:round;stroke-linejoin:round;stroke-miterlimit:0"
         x="284.40961"
         y="250.3495"
         id="text19"><tspan
           id="tspan19"
           x="284.40961"
           y="250.3495">Katenary</tspan></text>
    </g>
  </g>
</svg>
