<?xml version="1.0" encoding="UTF-8" standalone="no"?>
<!-- Created with Inkscape (http://www.inkscape.org/) -->

<svg
   width="210mm"
   height="297mm"
   viewBox="0 0 210 297"
   version="1.1"
   id="svg1"
   inkscape:version="1.3.2 (091e20ef0f, 2023-11-25)"
   sodipodi:docname="logo.svg"
   xmlns:inkscape="http://www.inkscape.org/namespaces/inkscape"
   xmlns:sodipodi="http://sodipodi.sourceforge.net/DTD/sodipodi-0.dtd"
   xmlns="http://www.w3.org/2000/svg"
   xmlns:svg="http://www.w3.org/2000/svg">
  <sodipodi:namedview
     id="namedview1"
     pagecolor="#505050"
     bordercolor="#000000"
     borderopacity="0.25"
     inkscape:showpageshadow="2"
     inkscape:pageopacity="0.0"
     inkscape:pagecheckerboard="0"
     inkscape:deskcolor="#acacac"
     inkscape:document-units="mm"
     inkscape:zoom="1.1198473"
     inkscape:cx="475.51125"
     inkscape:cy="501.40764"
     inkscape:window-width="1920"
     inkscape:window-height="1015"
     inkscape:window-x="0"
     inkscape:window-y="0"
     inkscape:window-maximized="1"
     inkscape:current-layer="layer1" />
  <defs
     id="defs1">
    <inkscape:path-effect
       effect="offset"
       id="path-effect4"
       is_visible="true"
       lpeversion="1.2"
       linejoin_type="miter"
       unit="mm"
       offset="1.4"
       miter_limit="4"
       attempt_force_join="false"
       update_on_knot_move="true" />
    <inkscape:path-effect
       effect="clone_original"
       css_properties=""
       attributes="style,clip-path,mask"
       linkeditem="#Katenary"
       is_visible="true"
       method="d"
       allow_transforms="true"
       id="path-effect3"
       lpeversion="1" />
    <inkscape:path-effect
       effect="offset"
       id="path-effect2"
       is_visible="true"
       lpeversion="1.2"
       linejoin_type="miter"
       unit="mm"
       offset="1.6"
       miter_limit="4"
       attempt_force_join="false"
       update_on_knot_move="true" />
    <inkscape:path-effect
       effect="powermask"
       id="path-effect12"
       is_visible="true"
       lpeversion="1"
       uri="#mask-powermask-path-effect12"
       invert="false"
       hide_mask="false"
       background="true"
       background_color="#ffffffff" />
    <filter
       id="mask-powermask-path-effect6_inverse"
       inkscape:label="filtermask-powermask-path-effect6"
       style="color-interpolation-filters:sRGB"
       height="100"
       width="100"
       x="-50"
       y="-50">
      <feColorMatrix
         id="mask-powermask-path-effect6_primitive1"
         values="1"
         type="saturate"
         result="fbSourceGraphic" />
      <feColorMatrix
         id="mask-powermask-path-effect6_primitive2"
         values="-1 0 0 0 1 0 -1 0 0 1 0 0 -1 0 1 0 0 0 1 0 "
         in="fbSourceGraphic" />
    </filter>
    <filter
       id="mask-powermask-path-effect8_inverse"
       inkscape:label="filtermask-powermask-path-effect8"
       style="color-interpolation-filters:sRGB"
       height="100"
       width="100"
       x="-50"
       y="-50">
      <feColorMatrix
         id="mask-powermask-path-effect8_primitive1"
         values="1"
         type="saturate"
         result="fbSourceGraphic" />
      <feColorMatrix
         id="mask-powermask-path-effect8_primitive2"
         values="-1 0 0 0 1 0 -1 0 0 1 0 0 -1 0 1 0 0 0 1 0 "
         in="fbSourceGraphic" />
    </filter>
  </defs>
  <g
     inkscape:label="Calque 1"
     inkscape:groupmode="layer"
     id="layer1">
    <path
       d="m 14.897409,161.31323 c 0.248356,0 0.440267,-0.19191 0.440267,-0.44027 v -3.556 h 3.533426 c 0.259645,0 0.440267,-0.19191 0.440267,-0.42898 0,-0.24835 -0.180622,-0.42898 -0.440267,-0.42898 h -3.533426 v -3.11573 h 4.854228 c 0.248355,0 0.440267,-0.18063 0.440267,-0.41769 0,-0.24836 -0.191912,-0.42898 -0.440267,-0.42898 h -5.294495 c -0.248356,0 -0.440267,0.19191 -0.440267,0.44027 v 7.93609 c 0,0.24836 0.191911,0.44027 0.440267,0.44027 z m 7.631297,0 c 0.270934,0 0.428978,-0.15804 0.428978,-0.42898 v -3.37538 c 0,-1.04987 0.92569,-1.7272 2.190047,-1.61431 0.372534,0.0226 0.677334,0.0903 0.756356,-0.24836 0.09031,-0.37253 -0.316089,-0.57573 -1.016001,-0.57573 -0.790223,0 -1.490135,0.37253 -1.930402,0.98213 v -0.48542 c 0,-0.27093 -0.158044,-0.42898 -0.428978,-0.42898 -0.270933,0 -0.428978,0.15805 -0.428978,0.42898 v 5.31707 c 0,0.27094 0.158045,0.42898 0.428978,0.42898 z m 7.10071,0.0564 c 1.806224,0 3.138314,-1.33209 3.138314,-3.13831 -0.01129,-1.81751 -1.33209,-3.1496 -3.138314,-3.1496 -1.817513,0 -3.138314,1.33209 -3.138314,3.1496 0,1.80622 1.320801,3.13831 3.138314,3.13831 z m 0,-0.79022 c -1.309512,0 -2.291647,-0.99342 -2.291647,-2.34809 0,-1.36596 0.982135,-2.35938 2.291647,-2.35938 1.320801,0 2.280358,0.99342 2.280358,2.35938 0,1.35467 -0.959557,2.34809 -2.280358,2.34809 z m 5.271917,0.73378 c 0.259644,0 0.428978,-0.16933 0.428978,-0.42898 v -3.34151 c 0,-0.97085 0.666045,-1.64818 1.603024,-1.64818 0.880534,0 1.490135,0.66604 1.490135,1.73849 v 3.2512 c 0,0.25965 0.180622,0.42898 0.440267,0.42898 0.259644,0 0.428978,-0.16933 0.428978,-0.42898 v -3.27378 c -0.01129,-1.03858 0.643467,-1.71591 1.580446,-1.71591 0.880534,0 1.490135,0.66604 1.490135,1.73849 v 3.2512 c 0,0.25965 0.180622,0.42898 0.440267,0.42898 0.259645,0 0.428978,-0.16933 0.428978,-0.42898 v -3.2512 c 0,-1.55787 -0.936979,-2.56258 -2.269069,-2.56258 -0.880534,0 -1.603024,0.39511 -2.032002,1.06115 -0.395111,-0.66604 -1.072445,-1.06115 -1.907824,-1.06115 -0.688623,0 -1.275646,0.28222 -1.693335,0.75635 v -0.24835 c 0,-0.25965 -0.169334,-0.44027 -0.428978,-0.44027 -0.259645,0 -0.440267,0.18062 -0.440267,0.44027 v 5.30578 c 0,0.25965 0.180622,0.42898 0.440267,0.42898 z m 16.312458,0.0564 c 0.812801,0 1.524002,-0.25964 2.05458,-0.75635 0.169333,-0.15805 0.146756,-0.38382 -0.04516,-0.55316 -0.158044,-0.13546 -0.383822,-0.11289 -0.553156,0.0339 -0.372533,0.32738 -0.869245,0.48542 -1.456268,0.48542 -1.320801,0 -2.235202,-1.00471 -2.235202,-2.34809 0,-1.37725 0.857956,-2.35938 2.122313,-2.35938 0.677334,0 1.196624,0.24836 1.64818,0.74507 0.158044,0.18062 0.372533,0.21449 0.541867,0.1016 0.214489,-0.14676 0.259644,-0.36125 0.1016,-0.55316 -0.587023,-0.72249 -1.365957,-1.08373 -2.291647,-1.08373 -1.727202,0 -2.968981,1.33209 -2.968981,3.1496 0,1.78365 1.298224,3.13831 3.08187,3.13831 z m 6.773333,0 c 1.806224,0 3.138314,-1.33209 3.138314,-3.13831 -0.01129,-1.81751 -1.33209,-3.1496 -3.138314,-3.1496 -1.817513,0 -3.138314,1.33209 -3.138314,3.1496 0,1.80622 1.320801,3.13831 3.138314,3.13831 z m 0,-0.79022 c -1.309512,0 -2.291647,-0.99342 -2.291647,-2.34809 0,-1.36596 0.982135,-2.35938 2.291647,-2.35938 1.320801,0 2.280358,0.99342 2.280358,2.35938 0,1.35467 -0.959557,2.34809 -2.280358,2.34809 z m 5.271917,0.73378 c 0.259644,0 0.428978,-0.16933 0.428978,-0.42898 v -3.34151 c 0,-0.97085 0.666045,-1.64818 1.603024,-1.64818 0.880534,0 1.490135,0.66604 1.490135,1.73849 v 3.2512 c 0,0.25965 0.180622,0.42898 0.440267,0.42898 0.259644,0 0.428978,-0.16933 0.428978,-0.42898 v -3.27378 c -0.01129,-1.03858 0.643467,-1.71591 1.580446,-1.71591 0.880534,0 1.490135,0.66604 1.490135,1.73849 v 3.2512 c 0,0.25965 0.180622,0.42898 0.440267,0.42898 0.259645,0 0.428978,-0.16933 0.428978,-0.42898 v -3.2512 c 0,-1.55787 -0.936979,-2.56258 -2.269069,-2.56258 -0.880534,0 -1.603024,0.39511 -2.032002,1.06115 -0.395111,-0.66604 -1.072445,-1.06115 -1.907824,-1.06115 -0.688623,0 -1.275646,0.28222 -1.693335,0.75635 v -0.24835 c 0,-0.25965 -0.169334,-0.44027 -0.428978,-0.44027 -0.259645,0 -0.440267,0.18062 -0.440267,0.44027 v 5.30578 c 0,0.25965 0.180622,0.42898 0.440267,0.42898 z m 10.690593,2.6416 c 0.259645,0 0.428979,-0.18062 0.428979,-0.44026 v -3.31894 c 0.496711,0.7112 1.354668,1.17404 2.35938,1.17404 1.73849,0 3.048003,-1.34337 3.048003,-3.13831 0,-1.79494 -1.354668,-3.1496 -3.149603,-3.1496 -1.761069,0 -3.104448,1.33209 -3.127026,3.10444 v 5.32837 c 0,0.25964 0.180623,0.44026 0.440267,0.44026 z m 2.686759,-3.37538 c -1.298224,0 -2.269069,-1.00471 -2.269069,-2.34809 0,-1.34338 0.970845,-2.35938 2.269069,-2.35938 1.309512,0 2.291646,1.016 2.291646,2.35938 0,1.34338 -0.982134,2.34809 -2.291646,2.34809 z m 7.665173,0.79022 c 1.806224,0 3.138314,-1.33209 3.138314,-3.13831 -0.01129,-1.81751 -1.33209,-3.1496 -3.138314,-3.1496 -1.817513,0 -3.138315,1.33209 -3.138315,3.1496 0,1.80622 1.320802,3.13831 3.138315,3.13831 z m 0,-0.79022 c -1.309513,0 -2.291647,-0.99342 -2.291647,-2.34809 0,-1.36596 0.982134,-2.35938 2.291647,-2.35938 1.320801,0 2.280358,0.99342 2.280358,2.35938 0,1.35467 -0.959557,2.34809 -2.280358,2.34809 z m 6.987829,0.79022 c 1.411113,0 2.427114,-0.73377 2.427114,-1.78364 0,-0.83538 -0.553156,-1.51271 -2.246491,-1.79494 -1.230491,-0.2032 -1.591735,-0.51929 -1.591735,-1.03858 0,-0.508 0.530578,-0.89182 1.365957,-0.89182 0.654756,0 1.140179,0.2032 1.512712,0.63218 0.158045,0.16933 0.428978,0.22578 0.609601,0.11289 0.214489,-0.13547 0.237067,-0.36125 0.09031,-0.56445 -0.440267,-0.58702 -1.174046,-0.95955 -2.190047,-0.95955 -1.219201,0 -2.235202,0.58702 -2.235202,1.7272 0,0.82409 0.688623,1.45627 2.201336,1.70462 1.174045,0.19191 1.648179,0.55316 1.648179,1.08374 -0.01129,0.54186 -0.485423,0.98213 -1.591735,0.98213 -0.711201,0 -1.343379,-0.22578 -1.704624,-0.65475 -0.158044,-0.16934 -0.395111,-0.21449 -0.6096,-0.0564 -0.203201,0.15805 -0.237067,0.41769 -0.06773,0.59831 0.541867,0.59831 1.490135,0.90311 2.381958,0.90311 z m 6.728184,0 c 0.699912,0 1.557869,-0.3048 2.054581,-0.73377 0.18062,-0.15805 0.16933,-0.39512 -0.0226,-0.56445 -0.158043,-0.12418 -0.383821,-0.11289 -0.553155,0.0226 -0.327378,0.28222 -0.936978,0.49671 -1.478846,0.49671 -1.253068,0 -2.178757,-0.84667 -2.302935,-2.07716 h 4.560716 c 0.23707,0 0.4064,-0.15804 0.4064,-0.39511 0,-1.77236 -1.12889,-3.03671 -2.833514,-3.03671 -1.738491,0 -2.957692,1.30951 -2.957692,3.1496 0,1.84009 1.298223,3.13831 3.127025,3.13831 z m -0.169333,-5.5089 c 1.140179,0 1.907824,0.79022 2.020713,1.9304 h -4.131738 c 0.158045,-1.14018 0.959557,-1.9304 2.111025,-1.9304 z m 10.024534,5.45254 h 0.23706 c 0.27094,0 0.47414,-0.18062 0.47414,-0.42898 0,-0.25964 -0.16933,-0.44027 -0.4064,-0.44027 h -0.3048 c -0.69991,0 -1.20791,-0.54186 -1.20791,-1.30951 v -3.01413 h 1.27564 c 0.23707,0 0.39511,-0.15805 0.39511,-0.37254 0,-0.22578 -0.15804,-0.38382 -0.39511,-0.38382 h -1.27564 v -1.74978 c 0,-0.25964 -0.18063,-0.44027 -0.44027,-0.44027 -0.24836,0 -0.42898,0.18063 -0.42898,0.44027 v 1.74978 h -0.73378 c -0.23707,0 -0.39511,0.15804 -0.39511,0.38382 0,0.21449 0.15804,0.37254 0.39511,0.37254 h 0.73378 v 3.01413 c 0,1.25307 0.86925,2.16747 2.07716,2.17876 z m 4.93326,0.0564 c 1.80622,0 3.13831,-1.33209 3.13831,-3.13831 -0.0113,-1.81751 -1.33209,-3.1496 -3.13831,-3.1496 -1.81752,0 -3.13832,1.33209 -3.13832,3.1496 0,1.80622 1.3208,3.13831 3.13832,3.13831 z m 0,-0.79022 c -1.30952,0 -2.29165,-0.99342 -2.29165,-2.34809 0,-1.36596 0.98213,-2.35938 2.29165,-2.35938 1.3208,0 2.28035,0.99342 2.28035,2.35938 0,1.35467 -0.95955,2.34809 -2.28035,2.34809 z m 8.69244,0.73378 c 0.24836,0 0.44027,-0.19191 0.44027,-0.44027 v -2.88996 l 1.00471,-1.016 3.07058,4.15432 c 0.0903,0.13547 0.21449,0.19191 0.37254,0.19191 0.31609,0 0.53057,-0.39511 0.31609,-0.69991 l -3.12703,-4.26721 3.09316,-3.09316 c 0.27093,-0.3048 0.14675,-0.75635 -0.25965,-0.75635 -0.13546,0 -0.23706,0.0452 -0.34995,0.15804 l -4.12045,4.12045 v -3.83822 c 0,-0.24836 -0.19191,-0.44027 -0.44027,-0.44027 -0.23706,0 -0.44026,0.19191 -0.44026,0.44027 v 7.93609 c 0,0.24836 0.2032,0.44027 0.44026,0.44027 z m 9.18917,0.0677 c 0.83538,0 1.55787,-0.33866 2.05458,-0.89182 v 0.38382 c 0,0.25965 0.16933,0.44027 0.42898,0.44027 0.25964,0 0.44026,-0.18062 0.44026,-0.44027 v -5.30578 c 0,-0.25965 -0.18062,-0.42898 -0.44026,-0.42898 -0.25965,0 -0.42898,0.16933 -0.42898,0.42898 v 3.34151 c 0,0.93698 -0.85796,1.64818 -1.96427,1.64818 -1.15147,0 -2.02071,-0.66604 -2.02071,-2.05458 v -2.93511 c 0,-0.24836 -0.19191,-0.42898 -0.44027,-0.42898 -0.24836,0 -0.42898,0.18062 -0.42898,0.42898 v 2.93511 c 0,1.86267 1.20791,2.87867 2.79965,2.87867 z m 8.08285,-0.0113 c 1.79494,0 3.14961,-1.35466 3.14961,-3.1496 0,-1.79493 -1.30952,-3.13831 -3.04801,-3.13831 -1.00471,0 -1.86267,0.46284 -2.35938,1.17404 v -3.31893 c 0,-0.25965 -0.16933,-0.44027 -0.42898,-0.44027 -0.25964,0 -0.44026,0.18062 -0.44026,0.44027 v 5.32836 c 0.0226,1.77235 1.36595,3.10444 3.12702,3.10444 z m 0,-0.79022 c -1.29822,0 -2.26907,-1.016 -2.26907,-2.35938 0,-1.34338 0.97085,-2.34809 2.26907,-2.34809 1.30951,0 2.29165,1.00471 2.29165,2.34809 0,1.34338 -0.98214,2.35938 -2.29165,2.35938 z m 7.65388,0.79022 c 0.69991,0 1.55787,-0.3048 2.05458,-0.73377 0.18062,-0.15805 0.16933,-0.39512 -0.0226,-0.56445 -0.15804,-0.12418 -0.38382,-0.11289 -0.55316,0.0226 -0.32737,0.28222 -0.93697,0.49671 -1.47884,0.49671 -1.25307,0 -2.17876,-0.84667 -2.30294,-2.07716 h 4.56072 c 0.23707,0 0.4064,-0.15804 0.4064,-0.39511 0,-1.77236 -1.12889,-3.03671 -2.83351,-3.03671 -1.7385,0 -2.9577,1.30951 -2.9577,3.1496 0,1.84009 1.29823,3.13831 3.12703,3.13831 z m -0.16933,-5.50898 c 1.14017,0 1.90782,0.79022 2.02071,1.9304 h -4.13174 c 0.15805,-1.14018 0.95956,-1.9304 2.11103,-1.9304 z"
       id="slogan"
       style="font-size:11.2889px;line-height:0;font-family:Comfortaa;-inkscape-font-specification:Comfortaa;fill:#ffffff;stroke-width:2;stroke-linecap:round;stroke-miterlimit:0;paint-order:stroke fill markers"
       aria-label="From compose to Kube"
       inkscape:export-filename="logo.png"
       inkscape:export-xdpi="126.78024"
       inkscape:export-ydpi="126.78024"
       inkscape:label="#slogan"
       mask="none" />
    <path
       id="tirangle"
       style="color:#000000;fill:#ff0000;stroke-linecap:round;stroke-miterlimit:0;-inkscape-stroke:none"
       d="M 123.61329 159.58557 C 123.41307 159.52995 123.20486 159.48366 122.98429 159.45523 C 122.54314 159.39833 122.05235 159.41335 121.47451 159.57409 C 120.31883 159.89546 119.75809 160.5329 119.24421 161.14846 C 118.73033 161.76402 118.29569 162.45879 117.85378 163.26362 C 116.96994 164.87328 116.08681 166.92637 115.17987 169.33589 C 113.95456 172.59125 112.70498 176.50628 111.51907 180.6309 C 112.07914 180.44466 112.71518 180.43019 113.36841 180.61406 C 114.55476 180.94799 115.35116 181.80884 115.52601 182.88935 C 115.72177 182.82186 115.92127 182.76456 116.12114 182.70898 C 117.34071 178.4147 118.63337 174.35426 119.85921 171.09752 C 120.7165 168.81989 121.54885 166.92166 122.23631 165.66966 C 122.50057 165.18836 122.70262 164.91402 122.88872 164.65828 C 123.18006 164.78129 123.49279 164.9124 123.96691 165.18777 C 125.20201 165.90515 126.89491 167.10135 128.80495 168.60943 C 132.62502 171.6256 137.36162 175.89748 141.90257 180.35359 C 146.44354 184.8097 150.80295 189.46597 153.89062 193.22847 C 155.43446 195.10972 156.66381 196.77875 157.40436 198.00011 C 157.68852 198.46877 157.82664 198.77937 157.95513 199.06831 C 157.70294 199.25922 157.43118 199.46683 156.95484 199.74019 C 155.71602 200.45114 153.8354 201.31653 151.57434 202.21663 C 147.56129 203.81418 142.31873 205.53411 136.90798 207.09453 L 130.88543 213.90995 C 132.64266 213.46658 134.41619 213.0019 136.19333 212.50771 C 142.45722 210.76583 148.63799 208.76787 153.42197 206.86342 C 155.81396 205.9112 157.85072 204.99022 159.44343 204.07619 C 160.23978 203.61917 160.92522 203.1701 161.53097 202.6447 C 162.13673 202.11931 162.76514 201.54834 163.06466 200.3868 C 163.36418 199.22526 163.09048 198.42249 162.81429 197.66968 C 162.53814 196.91687 162.15579 196.19155 161.67975 195.40642 C 160.72766 193.83616 159.38917 192.04679 157.75593 190.05659 C 154.48946 186.07621 150.04484 181.33895 145.40439 176.7852 C 140.76392 172.23145 135.94347 167.8764 131.90218 164.68559 C 129.88154 163.09017 128.06645 161.78733 126.47852 160.86502 C 125.68456 160.40387 124.95341 160.03338 124.19552 159.77147 C 124.00605 159.70599 123.81351 159.6412 123.61329 159.58557 z M 114.37346 189.25939 C 114.03462 189.6602 113.77818 190.1288 113.62817 190.66176 L 110.46466 201.9008 C 109.9959 203.5662 108.45833 204.33327 106.82172 203.87261 C 106.6229 203.81664 106.43531 203.74503 106.25905 203.66108 C 106.22186 203.90337 106.1692 204.17503 106.13465 204.41201 C 105.7633 206.95965 105.5439 209.18303 105.53912 211.01937 C 105.53712 211.93754 105.58238 212.75548 105.7345 213.54278 C 105.88662 214.33008 106.0678 215.15796 106.92396 215.99812 C 107.78011 216.83828 108.61034 217.00351 109.40037 217.14075 C 110.1904 217.278 111.01163 217.30868 111.9296 217.28897 C 113.76553 217.24957 115.98345 216.9875 118.52363 216.56817 C 119.75261 216.36529 121.06017 216.12137 122.41639 215.84881 C 122.40075 215.20825 122.64681 214.54677 123.18545 213.93669 L 126.91573 209.72827 C 123.58338 210.51914 120.41344 211.18857 117.70897 211.63502 C 115.30785 212.03139 113.25053 212.26021 111.82254 212.29087 C 111.27344 212.30267 110.93382 212.26572 110.61928 212.23242 C 110.58008 211.91858 110.53771 211.58051 110.53911 211.03148 C 110.54311 209.60316 110.73281 207.54112 111.08383 205.13295 C 111.73475 200.66732 112.9372 194.97471 114.37346 189.25939 z "
       transform="rotate(-15.720564,-76.570354,12.257835)" />
    <path
       d="m 1.6139658,145.61449 c 0.9104424,0 1.6139659,-0.66385 1.6139659,-1.52295 v -9.99684 l 3.6831526,-3.51451 11.2563777,14.37045 c 0.33107,0.4686 0.786291,0.66385 1.365663,0.66385 1.158745,0 1.945036,-1.36675 1.158745,-2.42111 L 9.2285737,128.43244 20.567719,117.7327 c 0.993209,-1.05435 0.537988,-2.61636 -0.951826,-2.61636 -0.496605,0 -0.869059,0.15621 -1.282896,0.54671 L 3.2279317,129.91634 V 116.6393 c 0,-0.8591 -0.7035235,-1.52296 -1.6139659,-1.52296 C 0.74490728,115.11634 0,115.7802 0,116.6393 v 27.45224 c 0,0.8591 0.74490728,1.52295 1.6139658,1.52295 z m 32.5690542,0.19525 c 3.641769,0 6.745549,-1.562 8.607817,-4.06121 v 2.38206 c 0,0.8591 0.66214,1.4839 1.613966,1.4839 0.910442,0 1.613965,-0.6248 1.613965,-1.4839 v -9.17678 c -0.04138,-6.20897 -4.966048,-10.89499 -11.504678,-10.89499 -6.580015,0 -11.50468,4.68602 -11.50468,10.89499 0,6.20897 4.800514,10.85593 11.17361,10.85593 z m 0.33107,-2.73351 c -4.75913,0 -8.400899,-3.47546 -8.400899,-8.12242 0,-4.64697 3.641769,-8.16148 8.400899,-8.16148 4.759129,0 8.359514,3.51451 8.359514,8.16148 0,4.64696 -3.600385,8.12242 -8.359514,8.12242 z m 26.568361,2.53826 h 0.869058 c 0.99321,0 1.738117,-0.6248 1.738117,-1.4839 0,-0.89816 -0.620756,-1.52296 -1.489814,-1.52296 h -1.117361 c -2.565792,0 -4.42806,-1.87441 -4.42806,-4.52981 v -10.42639 h 4.676362 c 0.869059,0 1.448431,-0.5467 1.448431,-1.28865 0,-0.781 -0.579372,-1.3277 -1.448431,-1.3277 h -4.676362 v -6.05277 c 0,-0.89816 -0.66214,-1.52296 -1.613966,-1.52296 -0.910442,0 -1.572582,0.6248 -1.572582,1.52296 v 6.05277 H 50.7779 c -0.869058,0 -1.44843,0.5467 -1.44843,1.3277 0,0.74195 0.579372,1.28865 1.44843,1.28865 h 2.689943 v 10.42639 c 0,4.33456 3.186548,7.49762 7.614608,7.53667 z m 18.043326,0.19525 c 2.565792,0 5.710956,-1.05435 7.53184,-2.53826 0.66214,-0.5467 0.620756,-1.36675 -0.08277,-1.9525 -0.579373,-0.42955 -1.407048,-0.3905 -2.027804,0.0781 -1.200128,0.97625 -3.43485,1.7182 -5.421269,1.7182 -4.593595,0 -7.987061,-2.92876 -8.442283,-7.18522 h 16.71903 c 0.869059,0 1.489815,-0.5467 1.489815,-1.36675 0,-6.13087 -4.138374,-10.50449 -10.387318,-10.50449 -6.373096,0 -10.842539,4.52982 -10.842539,10.89499 0,6.36517 4.759129,10.85593 11.463295,10.85593 z m -0.620756,-19.05646 c 4.179757,0 6.993851,2.73351 7.407689,6.67757 H 70.766262 c 0.579372,-3.94406 3.517618,-6.67757 7.738759,-6.67757 z m 17.381185,18.86121 c 0.951826,0 1.572582,-0.58575 1.572582,-1.4839 v -11.55884 c 0,-3.24116 3.103782,-5.70132 7.200782,-5.70132 4.22114,0 7.40769,2.30396 7.40769,7.10712 v 10.15304 c 0,0.8591 0.70352,1.4839 1.61396,1.4839 0.86906,0 1.57258,-0.6248 1.57258,-1.4839 v -10.15304 c 0,-6.44327 -4.42806,-9.95778 -10.26316,-9.95778 -3.06241,0 -5.752351,1.17151 -7.531852,3.08496 v -1.3277 c 0,-0.89815 -0.620756,-1.52296 -1.572582,-1.52296 -0.951826,0 -1.613966,0.62481 -1.613966,1.52296 v 18.35356 c 0,0.89815 0.66214,1.4839 1.613966,1.4839 z m 36.376314,0.19525 c 3.64177,0 6.74555,-1.562 8.60782,-4.06121 v 2.38206 c 0,0.8591 0.66214,1.4839 1.61396,1.4839 0.91044,0 1.61397,-0.6248 1.61397,-1.4839 v -9.17678 c -0.0414,-6.20897 -4.96605,-10.89499 -11.50468,-10.89499 -6.58002,0 -11.50468,4.68602 -11.50468,10.89499 0,6.20897 4.80051,10.85593 11.17361,10.85593 z m 0.33107,-2.73351 c -4.75913,0 -8.4009,-3.47546 -8.4009,-8.12242 0,-4.64697 3.64177,-8.16148 8.4009,-8.16148 4.75913,0 8.35951,3.51451 8.35951,8.16148 0,4.64696 -3.60038,8.12242 -8.35951,8.12242 z m 19.28482,2.53826 c 0.99321,0 1.57258,-0.5467 1.57258,-1.4839 V 132.4546 c 0,-3.63166 3.39347,-5.97467 8.02845,-5.58417 1.36566,0.0781 2.48302,0.3124 2.77271,-0.8591 0.33107,-1.28866 -1.15875,-1.99156 -3.72454,-1.99156 -2.89686,0 -5.46265,1.28866 -7.07662,3.39736 v -1.67915 c 0,-0.93721 -0.57937,-1.48391 -1.57258,-1.48391 -0.99321,0 -1.57258,0.5467 -1.57258,1.48391 v 18.39261 c 0,0.9372 0.57937,1.4839 1.57258,1.4839 z m 21.27125,9.29393 c 0.53799,0 0.95183,-0.3124 1.20013,-0.89815 l 13.40833,-27.80369 c 0.41384,-0.8591 0.12415,-1.48391 -0.78629,-1.83536 -0.91044,-0.35145 -1.57258,-0.11715 -1.98642,0.70291 l -7.69737,16.01055 -8.06983,-16.0496 c -0.37246,-0.78101 -1.15875,-1.01531 -1.98642,-0.66386 -0.82768,0.35145 -1.15875,1.09341 -0.74491,1.87441 l 9.22857,18.04116 0.0414,0.0391 -4.13838,8.55197 c -0.41383,0.85911 -0.12415,1.52296 0.78629,1.87441 0.24831,0.11715 0.49661,0.1562 0.74491,0.1562 z"
       id="Katenary"
       style="font-size:40.2px;line-height:0;font-family:Comfortaa;-inkscape-font-specification:Comfortaa;fill:#ffffff;stroke:none;stroke-width:3;stroke-linecap:round;stroke-miterlimit:0;paint-order:stroke fill markers"
       aria-label="Katenary"
       inkscape:export-filename="logo-bright.svg"
       inkscape:export-xdpi="126.78024"
       inkscape:export-ydpi="126.78024"
       mask="none" />
  </g>
</svg>
