<?xml version="1.0" encoding="UTF-8" standalone="no"?>
<svg
   id="svg211948"
   viewBox="0 0 435.98074 184.9017"
   height="184.9017"
   width="435.98074"
   version="1.1"
   xmlns:xlink="http://www.w3.org/1999/xlink"
   xmlns="http://www.w3.org/2000/svg"
   xmlns:svg="http://www.w3.org/2000/svg"
   xmlns:rdf="http://www.w3.org/1999/02/22-rdf-syntax-ns#"
   xmlns:cc="http://creativecommons.org/ns#"
   xmlns:dc="http://purl.org/dc/elements/1.1/">
  <metadata
     id="metadata211954">
    <rdf:rdf>
      <cc:work
         rdf:about="">
        <dc:format>image/svg+xml</dc:format>
        <dc:type
           rdf:resource="http://purl.org/dc/dcmitype/StillImage" />
      </cc:work>
    </rdf:rdf>
  </metadata>
  <defs
     id="defs211952" />
  <linearGradient
     spreadMethod="pad"
     y2="0.30000001"
     x2="-0.1"
     y1="1.2"
     x1="0.30000001"
     id="3d_gradient2-logo-24885591-b378-4c55-b87b-b7d42ed10694">
    <stop
       id="stop211929"
       stop-opacity="1"
       stop-color="#ffffff"
       offset="0%" />
    <stop
       id="stop211931"
       stop-opacity="1"
       stop-color="#000000"
       offset="100%" />
  </linearGradient>
  <linearGradient
     gradientTransform="rotate(-30)"
     spreadMethod="pad"
     y2="0.30000001"
     x2="-0.1"
     y1="1.2"
     x1="0.30000001"
     id="3d_gradient3-logo-24885591-b378-4c55-b87b-b7d42ed10694">
    <stop
       id="stop211934"
       stop-opacity="1"
       stop-color="#ffffff"
       offset="0%" />
    <stop
       id="stop211936"
       stop-opacity="1"
       stop-color="#cccccc"
       offset="50%" />
    <stop
       id="stop211938"
       stop-opacity="1"
       stop-color="#000000"
       offset="100%" />
  </linearGradient>
  <g
     id="logo-group"
     transform="translate(-294.00961,-314.5575)">
    <image
       xlink:href=""
       id="container"
       x="272"
       y="144"
       width="480"
       height="480"
       style="display:none" />
    <image
       xlink:href=""
       id="icon_container"
       style="display:none"
       x="0"
       y="0"
       width="0"
       height="0" />
    <g
       id="g18"
       transform="translate(-91.179677,-177.97015)">
      <path
         style="fill:#388ec7;fill-opacity:1;stroke:none;stroke-width:1.41128"
         d="m 650.16134,532.23713 -33.31908,17.65778 -13.63054,6.42952 -13.63053,-6.42952 -33.31907,-17.65778 c 0,5.32502 -2.24747,16.12101 0.77828,20.72433 1.84892,2.81293 6.84753,4.46784 9.82323,6.09432 8.26868,4.51957 16.72019,8.751 24.98932,13.27082 3.1083,1.69895 7.62988,5.16897 11.35877,5.21476 3.70778,0.0455 8.2451,-3.55102 11.35878,-5.19752 8.33909,-4.40967 16.72005,-8.76818 24.98932,-13.28806 3.05286,-1.66866 8.68533,-3.49778 10.14461,-6.69253 2.3911,-5.23485 0.45691,-14.46175 0.45691,-20.12612 m -46.19236,16.00215 c 3.59731,-0.51544 7.48607,-3.47354 10.60152,-5.12097 7.58911,-4.0131 15.20174,-8.00941 22.71755,-12.13797 3.53683,-1.94283 9.05374,-3.7013 11.65911,-6.69847 3.28982,-3.78453 1.93068,-13.45759 -2.58668,-15.74886 -4.7363,-2.40229 -8.80251,1.12086 -12.85868,3.25251 l -21.20306,11.2665 c -2.56736,1.35182 -6.01463,4.01777 -9.08702,4.01777 -3.29073,0 -7.12524,-2.97742 -9.84427,-4.47101 -6.50984,-3.57597 -13.17851,-6.90091 -19.68854,-10.47698 -2.85668,-1.56921 -7.10587,-4.85415 -10.60153,-4.52437 -7.2756,0.6864 -9.69308,11.97712 -5.60111,16.68444 2.43875,2.80547 7.56529,4.49972 10.90188,6.26408 7.83167,4.14137 15.6667,8.28474 23.4748,12.46456 3.21433,1.72068 8.18431,5.79216 12.11603,5.22877 m 30.29007,-45.33762 v -1.39693 l -18.17404,-8.90973 -12.11603,4.65427 -12.87329,-4.72164 -18.93129,8.9771 v 1.39693 l 21.20305,11.17542 9.84427,4.34169 9.84428,-4.33415 z"
         id="path17" />
      <path
         d="m 388.93329,654.58136 c 2.112,0 3.744,-1.632 3.744,-3.744 v -24.576 l 8.544,-8.64 26.112,35.328 c 0.768,1.152 1.824,1.632 3.168,1.632 2.688,0 4.512,-3.36 2.688,-5.952 l -26.592,-36.288 26.304,-26.304 c 2.304,-2.592 1.248,-6.432 -2.208,-6.432 -1.152,0 -2.016,0.384 -2.976,1.344 l -35.04,35.04 v -32.64 c 0,-2.112 -1.632,-3.744 -3.744,-3.744 -2.016,0 -3.744,1.632 -3.744,3.744 v 67.488 c 0,2.112 1.728,3.744 3.744,3.744 z m 75.55212,0.48 c 8.448,0 15.648,-3.84 19.968,-9.984 v 5.856 c 0,2.112 1.536,3.648 3.744,3.648 2.112,0 3.744,-1.536 3.744,-3.648 v -22.56 c -0.096,-15.264 -11.52,-26.784 -26.688,-26.784 -15.264,0 -26.688,11.52 -26.688,26.784 0,15.264 11.136,26.688 25.92,26.688 z m 0.768,-6.72 c -11.04,0 -19.488,-8.544 -19.488,-19.968 0,-11.424 8.448,-20.064 19.488,-20.064 11.04,0 19.392,8.64 19.392,20.064 0,11.424 -8.352,19.968 -19.392,19.968 z m 61.63201,6.24 h 2.016 c 2.304,0 4.032,-1.536 4.032,-3.648 0,-2.208 -1.44,-3.744 -3.456,-3.744 h -2.592 c -5.952,0 -10.272,-4.608 -10.272,-11.136 v -25.632 h 10.848 c 2.016,0 3.36,-1.344 3.36,-3.168 0,-1.92 -1.344,-3.264 -3.36,-3.264 h -10.848 v -14.88 c 0,-2.208 -1.536,-3.744 -3.744,-3.744 -2.112,0 -3.648,1.536 -3.648,3.744 v 14.88 h -6.24 c -2.016,0 -3.36,1.344 -3.36,3.264 0,1.824 1.344,3.168 3.36,3.168 h 6.24 v 25.632 c 0,10.656 7.392,18.432 17.664,18.528 z m 41.85604,0.48 c 5.952,0 13.248,-2.592 17.472,-6.24 1.536,-1.344 1.44,-3.36 -0.192,-4.8 -1.344,-1.056 -3.264,-0.96 -4.704,0.192 -2.784,2.4 -7.968,4.224 -12.576,4.224 -10.656,0 -18.528,-7.2 -19.584,-17.664 h 38.784 c 2.016,0 3.456,-1.344 3.456,-3.36 0,-15.072 -9.6,-25.824 -24.096,-25.824 -14.784,0 -25.152,11.136 -25.152,26.784 0,15.648 11.04,26.688 26.592,26.688 z m -1.44,-46.848 c 9.696,0 16.224,6.72 17.184,16.416 h -35.136 c 1.344,-9.696 8.16,-16.416 17.952,-16.416 z m 40.32003,46.368 c 2.208,0 3.648,-1.44 3.648,-3.648 v -28.416 c 0,-7.968 7.2,-14.016 16.704,-14.016 9.792,0 17.184,5.664 17.184,17.472 v 24.96 c 0,2.112 1.632,3.648 3.744,3.648 2.016,0 3.648,-1.536 3.648,-3.648 v -24.96 c 0,-15.84 -10.272,-24.48 -23.808,-24.48 -7.104,0 -13.344,2.88 -17.472,7.584 v -3.264 c 0,-2.208 -1.44,-3.744 -3.648,-3.744 -2.208,0 -3.744,1.536 -3.744,3.744 v 45.12 c 0,2.208 1.536,3.648 3.744,3.648 z m 84.384,0.48 c 8.448,0 15.648,-3.84 19.968,-9.984 v 5.856 c 0,2.112 1.536,3.648 3.744,3.648 2.112,0 3.744,-1.536 3.744,-3.648 v -22.56 c -0.096,-15.264 -11.52,-26.784 -26.688,-26.784 -15.264,0 -26.688,11.52 -26.688,26.784 0,15.264 11.136,26.688 25.92,26.688 z m 0.768,-6.72 c -11.04,0 -19.488,-8.544 -19.488,-19.968 0,-11.424 8.448,-20.064 19.488,-20.064 11.04,0 19.392,8.64 19.392,20.064 0,11.424 -8.352,19.968 -19.392,19.968 z m 44.73601,6.24 c 2.304,0 3.648,-1.344 3.648,-3.648 v -28.704 c 0,-8.928 7.872,-14.688 18.624,-13.728 3.168,0.192 5.76,0.768 6.432,-2.112 0.768,-3.168 -2.688,-4.896 -8.64,-4.896 -6.72,0 -12.672,3.168 -16.416,8.352 v -4.128 c 0,-2.304 -1.344,-3.648 -3.648,-3.648 -2.304,0 -3.648,1.344 -3.648,3.648 v 45.216 c 0,2.304 1.344,3.648 3.648,3.648 z m 49.34401,22.848 c 1.248,0 2.208,-0.768 2.784,-2.208 l 31.104,-68.352 c 0.96,-2.112 0.288,-3.648 -1.824,-4.512 -2.112,-0.864 -3.648,-0.288 -4.608,1.728 l -17.856,39.36 -18.72,-39.456 c -0.864,-1.92 -2.688,-2.496 -4.608,-1.632 -1.92,0.864 -2.688,2.688 -1.728,4.608 l 21.408,44.352 0.096,0.096 -9.6,21.024 c -0.96,2.112 -0.288,3.744 1.824,4.608 0.576,0.288 1.152,0.384 1.728,0.384 z"
         id="text18"
         style="font-size:96px;line-height:0;font-family:Comfortaa;-inkscape-font-specification:Comfortaa;fill:#ff7f2a;stroke-width:51.0236;stroke-linecap:round;stroke-linejoin:round;stroke-miterlimit:0"
         aria-label="Katenary" />
    </g>
    <path
       style="fill:#388ec7;fill-opacity:1;stroke:none;stroke-width:1.41128"
       d="m 558.98167,600.50526 -33.31908,17.65778 -13.63054,6.42952 -13.63053,-6.42952 -33.31907,-17.65778 c 0,5.32502 -2.24747,16.12101 0.77828,20.72433 1.84892,2.81293 6.84753,4.46784 9.82323,6.09432 8.26868,4.51957 16.72019,8.751 24.98932,13.27082 3.1083,1.69895 7.62988,5.16897 11.35877,5.21476 3.70778,0.0455 8.2451,-3.55102 11.35878,-5.19752 8.33909,-4.40967 16.72005,-8.76818 24.98932,-13.28806 3.05286,-1.66866 8.68533,-3.49778 10.14461,-6.69253 2.3911,-5.23485 0.45691,-14.46175 0.45691,-20.12612 m -46.19236,16.00215 c 3.59731,-0.51544 7.48607,-3.47354 10.60152,-5.12097 7.58911,-4.0131 15.20174,-8.00941 22.71755,-12.13797 3.53683,-1.94283 9.05374,-3.7013 11.65911,-6.69847 3.28982,-3.78453 1.93068,-13.45759 -2.58668,-15.74886 -4.7363,-2.40229 -8.80251,1.12086 -12.85868,3.25251 l -21.20306,11.2665 c -2.56736,1.35182 -6.01463,4.01777 -9.08702,4.01777 -3.29073,0 -7.12524,-2.97742 -9.84427,-4.47101 -6.50984,-3.57597 -13.17851,-6.90091 -19.68854,-10.47698 -2.85668,-1.56921 -7.10587,-4.85415 -10.60153,-4.52437 -7.2756,0.6864 -9.69308,11.97712 -5.60111,16.68444 2.43875,2.80547 7.56529,4.49972 10.90188,6.26408 7.83167,4.14137 15.6667,8.28474 23.4748,12.46456 3.21433,1.72068 8.18431,5.79216 12.11603,5.22877 m 30.29007,-45.33762 v -1.39693 l -18.17404,-8.90973 -12.11603,4.65427 -12.87329,-4.72164 -18.93129,8.9771 v 1.39693 l 21.20305,11.17542 9.84427,4.34169 9.84428,-4.33415 z"
       id="path18" />
    <g
       id="g19">
      <path
         style="fill:#388ec7;fill-opacity:1;stroke:none;stroke-width:1.41128"
         d="m 280.25003,221.48792 -33.31908,17.65778 -13.63054,6.42952 -13.63053,-6.42952 -33.31907,-17.65778 c 0,5.32502 -2.24747,16.12101 0.77828,20.72433 1.84892,2.81293 6.84753,4.46784 9.82323,6.09432 8.26868,4.51957 16.72019,8.751 24.98932,13.27082 3.1083,1.69895 7.62988,5.16897 11.35877,5.21476 3.70778,0.0455 8.2451,-3.55102 11.35878,-5.19752 8.33909,-4.40967 16.72005,-8.76818 24.98932,-13.28806 3.05286,-1.66866 8.68533,-3.49778 10.14461,-6.69253 2.3911,-5.23485 0.45691,-14.46175 0.45691,-20.12612 m -46.19236,16.00215 c 3.59731,-0.51544 7.48607,-3.47354 10.60152,-5.12097 7.58911,-4.0131 15.20174,-8.00941 22.71755,-12.13797 3.53683,-1.94283 9.05374,-3.7013 11.65911,-6.69847 3.28982,-3.78453 1.93068,-13.45759 -2.58668,-15.74886 -4.7363,-2.40229 -8.80251,1.12086 -12.85868,3.25251 l -21.20306,11.2665 c -2.56736,1.35182 -6.01463,4.01777 -9.08702,4.01777 -3.29073,0 -7.12524,-2.97742 -9.84427,-4.47101 -6.50984,-3.57597 -13.17851,-6.90091 -19.68854,-10.47698 -2.85668,-1.56921 -7.10587,-4.85415 -10.60153,-4.52437 -7.2756,0.6864 -9.69308,11.97712 -5.60111,16.68444 2.43875,2.80547 7.56529,4.49972 10.90188,6.26408 7.83167,4.14137 15.6667,8.28474 23.4748,12.46456 3.21433,1.72068 8.18431,5.79216 12.11603,5.22877 m 30.29007,-45.33762 v -1.39693 l -18.17404,-8.90973 -12.11603,4.65427 -12.87329,-4.72164 -18.93129,8.9771 v 1.39693 l 21.20305,11.17542 9.84427,4.34169 9.84428,-4.33415 z"
         id="path19" />
      <path
         d="m 297.75361,250.3495 c 2.112,0 3.744,-1.632 3.744,-3.744 v -24.576 l 8.544,-8.64 26.112,35.328 c 0.768,1.152 1.824,1.632 3.168,1.632 2.688,0 4.512,-3.36 2.688,-5.952 l -26.592,-36.288 26.304,-26.304 c 2.304,-2.592 1.248,-6.432 -2.208,-6.432 -1.152,0 -2.016,0.384 -2.976,1.344 l -35.04,35.04 v -32.64 c 0,-2.112 -1.632,-3.744 -3.744,-3.744 -2.016,0 -3.744,1.632 -3.744,3.744 v 67.488 c 0,2.112 1.728,3.744 3.744,3.744 z m 75.55211,0.48 c 8.448,0 15.648,-3.84 19.968,-9.984 v 5.856 c 0,2.112 1.536,3.648 3.744,3.648 2.112,0 3.744,-1.536 3.744,-3.648 v -22.56 c -0.096,-15.264 -11.52,-26.784 -26.688,-26.784 -15.264,0 -26.688,11.52 -26.688,26.784 0,15.264 11.136,26.688 25.92,26.688 z m 0.768,-6.72 c -11.04,0 -19.488,-8.544 -19.488,-19.968 0,-11.424 8.448,-20.064 19.488,-20.064 11.04,0 19.392,8.64 19.392,20.064 0,11.424 -8.352,19.968 -19.392,19.968 z m 61.63201,6.24 h 2.016 c 2.304,0 4.032,-1.536 4.032,-3.648 0,-2.208 -1.44,-3.744 -3.456,-3.744 h -2.592 c -5.952,0 -10.272,-4.608 -10.272,-11.136 v -25.632 h 10.848 c 2.016,0 3.36,-1.344 3.36,-3.168 0,-1.92 -1.344,-3.264 -3.36,-3.264 h -10.848 v -14.88 c 0,-2.208 -1.536,-3.744 -3.744,-3.744 -2.112,0 -3.648,1.536 -3.648,3.744 v 14.88 h -6.24 c -2.016,0 -3.36,1.344 -3.36,3.264 0,1.824 1.344,3.168 3.36,3.168 h 6.24 v 25.632 c 0,10.656 7.392,18.432 17.664,18.528 z m 41.85604,0.48 c 5.952,0 13.248,-2.592 17.472,-6.24 1.536,-1.344 1.44,-3.36 -0.192,-4.8 -1.344,-1.056 -3.264,-0.96 -4.704,0.192 -2.784,2.4 -7.968,4.224 -12.576,4.224 -10.656,0 -18.528,-7.2 -19.584,-17.664 h 38.784 c 2.016,0 3.456,-1.344 3.456,-3.36 0,-15.072 -9.6,-25.824 -24.096,-25.824 -14.784,0 -25.152,11.136 -25.152,26.784 0,15.648 11.04,26.688 26.592,26.688 z m -1.44,-46.848 c 9.696,0 16.224,6.72 17.184,16.416 h -35.136 c 1.344,-9.696 8.16,-16.416 17.952,-16.416 z m 40.32003,46.368 c 2.208,0 3.648,-1.44 3.648,-3.648 v -28.416 c 0,-7.968 7.2,-14.016 16.704,-14.016 9.792,0 17.184,5.664 17.184,17.472 v 24.96 c 0,2.112 1.632,3.648 3.744,3.648 2.016,0 3.648,-1.536 3.648,-3.648 v -24.96 c 0,-15.84 -10.272,-24.48 -23.808,-24.48 -7.104,0 -13.344,2.88 -17.472,7.584 v -3.264 c 0,-2.208 -1.44,-3.744 -3.648,-3.744 -2.208,0 -3.744,1.536 -3.744,3.744 v 45.12 c 0,2.208 1.536,3.648 3.744,3.648 z m 84.384,0.48 c 8.448,0 15.648,-3.84 19.968,-9.984 v 5.856 c 0,2.112 1.536,3.648 3.744,3.648 2.112,0 3.744,-1.536 3.744,-3.648 v -22.56 c -0.096,-15.264 -11.52,-26.784 -26.688,-26.784 -15.264,0 -26.688,11.52 -26.688,26.784 0,15.264 11.136,26.688 25.92,26.688 z m 0.768,-6.72 c -11.04,0 -19.488,-8.544 -19.488,-19.968 0,-11.424 8.448,-20.064 19.488,-20.064 11.04,0 19.392,8.64 19.392,20.064 0,11.424 -8.352,19.968 -19.392,19.968 z m 44.73601,6.24 c 2.304,0 3.648,-1.344 3.648,-3.648 v -28.704 c 0,-8.928 7.872,-14.688 18.624,-13.728 3.168,0.192 5.76,0.768 6.432,-2.112 0.768,-3.168 -2.688,-4.896 -8.64,-4.896 -6.72,0 -12.672,3.168 -16.416,8.352 v -4.128 c 0,-2.304 -1.344,-3.648 -3.648,-3.648 -2.304,0 -3.648,1.344 -3.648,3.648 v 45.216 c 0,2.304 1.344,3.648 3.648,3.648 z m 49.34402,22.848 c 1.248,0 2.208,-0.768 2.784,-2.208 l 31.104,-68.352 c 0.96,-2.112 0.288,-3.648 -1.824,-4.512 -2.112,-0.864 -3.648,-0.288 -4.608,1.728 l -17.856,39.36 -18.72,-39.456 c -0.864,-1.92 -2.688,-2.496 -4.608,-1.632 -1.92,0.864 -2.688,2.688 -1.728,4.608 l 21.408,44.352 0.096,0.096 -9.6,21.024 c -0.96,2.112 -0.288,3.744 1.824,4.608 0.576,0.288 1.152,0.384 1.728,0.384 z"
         id="text19"
         style="font-size:96px;line-height:0;font-family:Comfortaa;-inkscape-font-specification:Comfortaa;fill:#ff7f2a;stroke-width:51.0236;stroke-linecap:round;stroke-linejoin:round;stroke-miterlimit:0"
         aria-label="Katenary" />
    </g>
  </g>
</svg>
